<svg width="45" height="45" viewBox="0 0 45 45" fill="none" xmlns="http://www.w3.org/2000/svg">
<rect width="44.8956" height="44.8956" rx="22.4478" fill="#FEE2E2"/>
<path d="M24.2152 12.9775L31.4833 25.5657C31.5941 25.7576 31.6524 25.9754 31.6524 26.197C31.6525 26.4187 31.5941 26.6364 31.4833 26.8284C31.3725 27.0203 31.2131 27.1797 31.0211 27.2906C30.8292 27.4014 30.6114 27.4597 30.3898 27.4597H15.8537C15.6321 27.4597 15.4143 27.4014 15.2224 27.2906C15.0304 27.1797 14.871 27.0203 14.7602 26.8284C14.6494 26.6364 14.5911 26.4187 14.5911 26.197C14.5911 25.9754 14.6494 25.7576 14.7602 25.5657L22.0283 12.9775C22.514 12.1357 23.7287 12.1357 24.2152 12.9775ZM23.1218 14.4507L16.5827 25.7761H29.6608L23.1218 14.4507ZM23.1218 22.9545C23.345 22.9545 23.5591 23.0431 23.717 23.201C23.8749 23.3589 23.9635 23.573 23.9635 23.7963C23.9635 24.0195 23.8749 24.2336 23.717 24.3915C23.5591 24.5494 23.345 24.638 23.1218 24.638C22.8985 24.638 22.6844 24.5494 22.5265 24.3915C22.3687 24.2336 22.28 24.0195 22.28 23.7963C22.28 23.573 22.3687 23.3589 22.5265 23.201C22.6844 23.0431 22.8985 22.9545 23.1218 22.9545ZM23.1218 17.0619C23.345 17.0619 23.5591 17.1506 23.717 17.3085C23.8749 17.4663 23.9635 17.6804 23.9635 17.9037V21.2709C23.9635 21.4941 23.8749 21.7082 23.717 21.8661C23.5591 22.024 23.345 22.1127 23.1218 22.1127C22.8985 22.1127 22.6844 22.024 22.5265 21.8661C22.3687 21.7082 22.28 21.4941 22.28 21.2709V17.9037C22.28 17.6804 22.3687 17.4663 22.5265 17.3085C22.6844 17.1506 22.8985 17.0619 23.1218 17.0619Z" fill="#FF0000"/>
</svg>
