<svg width="45" height="45" viewBox="0 0 45 45" fill="none" xmlns="http://www.w3.org/2000/svg">
<path d="M16.875 22.5C19.1128 22.5 21.2589 21.6111 22.8412 20.0287C24.4236 18.4464 25.3125 16.3003 25.3125 14.0625C25.3125 11.8247 24.4236 9.67863 22.8412 8.09629C21.2589 6.51395 19.1128 5.625 16.875 5.625C14.6372 5.625 12.4911 6.51395 10.9088 8.09629C9.32645 9.67863 8.4375 11.8247 8.4375 14.0625C8.4375 16.3003 9.32645 18.4464 10.9088 20.0287C12.4911 21.6111 14.6372 22.5 16.875 22.5ZM22.5 14.0625C22.5 15.5543 21.9074 16.9851 20.8525 18.04C19.7976 19.0949 18.3668 19.6875 16.875 19.6875C15.3832 19.6875 13.9524 19.0949 12.8975 18.04C11.8426 16.9851 11.25 15.5543 11.25 14.0625C11.25 12.5707 11.8426 11.1399 12.8975 10.085C13.9524 9.03013 15.3832 8.4375 16.875 8.4375C18.3668 8.4375 19.7976 9.03013 20.8525 10.085C21.9074 11.1399 22.5 12.5707 22.5 14.0625ZM33.75 36.5625C33.75 39.375 30.9375 39.375 30.9375 39.375H2.8125C2.8125 39.375 0 39.375 0 36.5625C0 33.75 2.8125 25.3125 16.875 25.3125C30.9375 25.3125 33.75 33.75 33.75 36.5625ZM30.9375 36.5513C30.9347 35.8594 30.5044 33.7781 28.5975 31.8713C26.7638 30.0375 23.3128 28.125 16.875 28.125C10.4372 28.125 6.98625 30.0375 5.1525 31.8713C3.24563 33.7781 2.81813 35.8594 2.8125 36.5513H30.9375Z" fill="white"/>
<path fill-rule="evenodd" clip-rule="evenodd" d="M37.9688 14.0625C38.3417 14.0625 38.6994 14.2107 38.9631 14.4744C39.2268 14.7381 39.375 15.0958 39.375 15.4688V19.6875H43.5938C43.9667 19.6875 44.3244 19.8357 44.5881 20.0994C44.8518 20.3631 45 20.7208 45 21.0938C45 21.4667 44.8518 21.8244 44.5881 22.0881C44.3244 22.3518 43.9667 22.5 43.5938 22.5H39.375V26.7188C39.375 27.0917 39.2268 27.4494 38.9631 27.7131C38.6994 27.9768 38.3417 28.125 37.9688 28.125C37.5958 28.125 37.2381 27.9768 36.9744 27.7131C36.7107 27.4494 36.5625 27.0917 36.5625 26.7188V22.5H32.3438C31.9708 22.5 31.6131 22.3518 31.3494 22.0881C31.0857 21.8244 30.9375 21.4667 30.9375 21.0938C30.9375 20.7208 31.0857 20.3631 31.3494 20.0994C31.6131 19.8357 31.9708 19.6875 32.3438 19.6875H36.5625V15.4688C36.5625 15.0958 36.7107 14.7381 36.9744 14.4744C37.2381 14.2107 37.5958 14.0625 37.9688 14.0625Z" fill="white"/>
</svg>
