<svg width="70" height="70" viewBox="0 0 70 70" fill="none" xmlns="http://www.w3.org/2000/svg">
<rect width="70" height="70" rx="9" fill="#B99BF2" fill-opacity="0.4"/>
<path d="M53.7686 21.8748H48.1395V16.2165C48.1395 14.2826 47.3712 12.4279 46.0038 11.0605C44.6363 9.69303 42.7817 8.9248 40.8478 8.9248H29.1811C27.2472 8.9248 25.3926 9.69303 24.0251 11.0605C22.6577 12.4279 21.8895 14.2826 21.8895 16.2165V21.8748H16.2311C14.2972 21.8748 12.4426 22.643 11.0751 24.0105C9.70768 25.3779 8.93945 27.2326 8.93945 29.1665V56.6998C8.9471 57.8578 9.41049 58.9661 10.2293 59.785C11.0481 60.6038 12.1565 61.0672 13.3145 61.0748H56.6853C57.8456 61.0748 58.9584 60.6139 59.7789 59.7934C60.5994 58.9729 61.0603 57.8601 61.0603 56.6998V29.1665C61.0603 28.2089 60.8717 27.2607 60.5052 26.3761C60.1388 25.4914 59.6017 24.6876 58.9246 24.0105C58.2475 23.3334 57.4437 22.7963 56.559 22.4298C55.6744 22.0634 54.7262 21.8748 53.7686 21.8748ZM21.8895 58.1581H13.3145C12.93 58.1507 12.5634 57.9946 12.2915 57.7227C12.0196 57.4508 11.8636 57.0842 11.8561 56.6998V29.1665C11.8561 28.0061 12.3171 26.8933 13.1375 26.0729C13.958 25.2524 15.0708 24.7915 16.2311 24.7915H21.8895V58.1581ZM45.2228 58.1581H40.8478V50.8665C40.8364 49.3143 40.2188 47.828 39.127 46.7248C38.3095 45.9122 37.2696 45.36 36.1386 45.1378C35.0075 44.9157 33.836 45.0337 32.772 45.4768C31.7079 45.9199 30.799 46.6683 30.1599 47.6275C29.5208 48.5868 29.1802 49.7138 29.1811 50.8665V58.1581H24.8061V16.2165C24.8061 15.0561 25.2671 13.9434 26.0875 13.1229C26.908 12.3024 28.0208 11.8415 29.1811 11.8415H40.8478C42.0081 11.8415 43.1209 12.3024 43.9414 13.1229C44.7619 13.9434 45.2228 15.0561 45.2228 16.2165V58.1581ZM58.1436 56.6998C58.1436 57.0866 57.99 57.4575 57.7165 57.731C57.443 58.0045 57.0721 58.1581 56.6853 58.1581H48.1395V24.7915H53.7686C54.9289 24.7915 56.0417 25.2524 56.8622 26.0729C57.6827 26.8933 58.1436 28.0061 58.1436 29.1665V56.6998Z" fill="#4E2A8A"/>
<path d="M42.3067 24.9665C42.3067 25.3532 42.1531 25.7242 41.8796 25.9977C41.6061 26.2712 41.2352 26.4248 40.8484 26.4248H36.4734V30.7998C36.4734 31.1866 36.3197 31.5575 36.0462 31.831C35.7728 32.1045 35.4018 32.2581 35.0151 32.2581C34.6283 32.2581 34.2573 32.1045 33.9839 31.831C33.7104 31.5575 33.5567 31.1866 33.5567 30.7998V26.4248H29.1817C28.7949 26.4248 28.424 26.2712 28.1505 25.9977C27.877 25.7242 27.7234 25.3532 27.7234 24.9665C27.7234 24.5797 27.877 24.2088 28.1505 23.9353C28.424 23.6618 28.7949 23.5081 29.1817 23.5081H33.5567V19.1331C33.5567 18.7464 33.7104 18.3754 33.9839 18.1019C34.2573 17.8285 34.6283 17.6748 35.0151 17.6748C35.3995 17.6823 35.7661 17.8383 36.038 18.1102C36.3099 18.3821 36.4659 18.7487 36.4734 19.1331V23.5081H40.8484C41.2328 23.5156 41.5994 23.6716 41.8713 23.9435C42.1432 24.2154 42.2993 24.582 42.3067 24.9665ZM16.8763 38.5494C16.4895 38.5494 16.1186 38.3957 15.8451 38.1223C15.5716 37.8488 15.418 37.4778 15.418 37.0911V32.7161C15.418 32.3293 15.5716 31.9583 15.8451 31.6849C16.1186 31.4114 16.4895 31.2577 16.8763 31.2577C17.2631 31.2577 17.634 31.4114 17.9075 31.6849C18.181 31.9583 18.3346 32.3293 18.3346 32.7161V37.0911C18.3346 37.4778 18.181 37.8488 17.9075 38.1223C17.634 38.3957 17.2631 38.5494 16.8763 38.5494ZM16.8763 51.6744C16.4895 51.6744 16.1186 51.5207 15.8451 51.2472C15.5716 50.9738 15.418 50.6028 15.418 50.2161V45.8411C15.418 45.4543 15.5716 45.0833 15.8451 44.8099C16.1186 44.5364 16.4895 44.3827 16.8763 44.3827C17.2631 44.3827 17.634 44.5364 17.9075 44.8099C18.181 45.0833 18.3346 45.4543 18.3346 45.8411V50.2161C18.3346 50.6028 18.181 50.9738 17.9075 51.2472C17.634 51.5207 17.2631 51.6744 16.8763 51.6744ZM53.1451 38.5494C52.7583 38.5494 52.3873 38.3957 52.1139 38.1223C51.8404 37.8488 51.6867 37.4778 51.6867 37.0911V32.7161C51.6867 32.3293 51.8404 31.9583 52.1139 31.6849C52.3873 31.4114 52.7583 31.2577 53.1451 31.2577C53.5318 31.2577 53.9028 31.4114 54.1763 31.6849C54.4497 31.9583 54.6034 32.3293 54.6034 32.7161V37.0911C54.6034 37.4778 54.4497 37.8488 54.1763 38.1223C53.9028 38.3957 53.5318 38.5494 53.1451 38.5494ZM53.1451 51.6744C52.7583 51.6744 52.3873 51.5207 52.1139 51.2472C51.8404 50.9738 51.6867 50.6028 51.6867 50.2161V45.8411C51.6867 45.4543 51.8404 45.0833 52.1139 44.8099C52.3873 44.5364 52.7583 44.3827 53.1451 44.3827C53.5318 44.3827 53.9028 44.5364 54.1763 44.8099C54.4497 45.0833 54.6034 45.4543 54.6034 45.8411V50.2161C54.6034 50.6028 54.4497 50.9738 54.1763 51.2472C53.9028 51.5207 53.5318 51.6744 53.1451 51.6744Z" fill="#4E2A8A"/>
</svg>
