<svg width="18" height="18" viewBox="0 0 18 18" fill="none" xmlns="http://www.w3.org/2000/svg">
<g clip-path="url(#clip0_608_87)">
<path d="M1.48899 8.41535C1.4288 8.5775 1.4288 8.75587 1.48899 8.91802C2.07522 10.3395 3.07031 11.5548 4.3481 12.41C5.6259 13.2652 7.12885 13.7218 8.66643 13.7218C10.204 13.7218 11.707 13.2652 12.9848 12.41C14.2626 11.5548 15.2577 10.3395 15.8439 8.91802C15.9041 8.75587 15.9041 8.5775 15.8439 8.41535C15.2577 6.99391 14.2626 5.77854 12.9848 4.92333C11.707 4.06812 10.204 3.61157 8.66643 3.61157C7.12885 3.61157 5.6259 4.06812 4.3481 4.92333C3.07031 5.77854 2.07522 6.99391 1.48899 8.41535Z" stroke="#62748E" stroke-width="1.44444" stroke-linecap="round" stroke-linejoin="round"/>
<path d="M8.66667 10.8333C9.86328 10.8333 10.8333 9.86328 10.8333 8.66667C10.8333 7.47005 9.86328 6.5 8.66667 6.5C7.47005 6.5 6.5 7.47005 6.5 8.66667C6.5 9.86328 7.47005 10.8333 8.66667 10.8333Z" stroke="#62748E" stroke-width="1.44444" stroke-linecap="round" stroke-linejoin="round"/>
</g>
<defs>
<clipPath id="clip0_608_87">
<rect width="17.3333" height="17.3333" fill="white"/>
</clipPath>
</defs>
</svg>
