<svg width="105" height="105" viewBox="0 0 105 105" fill="none" xmlns="http://www.w3.org/2000/svg">
<rect width="105" height="105" rx="52.5" fill="#B99BF2" fill-opacity="0.4"/>
<path fill-rule="evenodd" clip-rule="evenodd" d="M39.5556 24.1H64.4444V17H70.6667V24.1H73.7778C75.428 24.1 77.0107 24.848 78.1775 26.1795C79.3444 27.5111 80 29.317 80 31.2V80.9C80 82.783 79.3444 84.5889 78.1775 85.9205C77.0107 87.252 75.428 88 73.7778 88H30.2222C28.572 88 26.9893 87.252 25.8224 85.9205C24.6556 84.5889 24 82.783 24 80.9V31.2C24 29.317 24.6556 27.5111 25.8224 26.1795C26.9893 24.848 28.572 24.1 30.2222 24.1H33.3333V17H39.5556V24.1ZM27.5443 30.7159V57.3409V83.3896H52H76.4557V60.9716V30.7159H53.0633H27.5443ZM36.4444 48.95H42.6667V56.05H36.4444V48.95ZM48.8889 48.95H55.1111V56.05H48.8889V48.95ZM61.3333 48.95H67.5556V56.05H61.3333V48.95ZM61.3333 63.15H67.5556V70.25H61.3333V63.15ZM48.8889 63.15H55.1111V70.25H48.8889V63.15ZM36.4444 63.15H42.6667V70.25H36.4444V63.15Z" fill="#4E2A8A"/>
</svg>
