<svg width="52" height="52" viewBox="0 0 52 52" fill="none" xmlns="http://www.w3.org/2000/svg">
<g opacity="0.86">
<rect width="52" height="52" rx="26" fill="#FECFCF"/>
<path d="M25.5 14.2042V10M25.5 14.2042C27.7752 14.2997 29.927 15.3486 31.5007 17.1294C33.0743 18.9101 33.9464 21.2831 33.9328 23.7469V26.9468C33.9328 31.1883 37 32.2478 37 34.3686C37 35.4228 37 36.6654 36.1161 36.6654H14.8839C14 36.6654 14 35.4228 14 34.3686C14 32.2478 17.0672 31.1883 17.0672 26.9468V23.7469C17.0536 21.2831 17.9257 18.9101 19.4993 17.1294C21.073 15.3486 23.2248 14.2997 25.5 14.2042ZM20.1328 36.6654C20.2872 38.18 20.6355 39.4031 21.6836 40.4199C22.7324 41.4373 24.0914 42 25.5 42C26.9086 42 28.2676 41.4373 29.3164 40.4199C30.3645 39.4031 31.3469 38.18 31.5014 36.6654H20.1328Z" stroke="#FF0000" stroke-width="2.5" stroke-linecap="round" stroke-linejoin="round"/>
</g>
</svg>
