<svg width="49" height="52" viewBox="0 0 49 52" fill="none" xmlns="http://www.w3.org/2000/svg">
<g opacity="0.86">
<rect width="49" height="52" rx="24.5" fill="#C7C4F3"/>
<path d="M25 23C23.6739 23 22.4021 22.4205 21.4645 21.3891C20.5268 20.3576 20 18.9587 20 17.5C20 16.0413 20.5268 14.6424 21.4645 13.6109C22.4021 12.5795 23.6739 12 25 12C26.3261 12 27.5979 12.5795 28.5355 13.6109C29.4732 14.6424 30 16.0413 30 17.5C30 18.9587 29.4732 20.3576 28.5355 21.3891C27.5979 22.4205 26.3261 23 25 23ZM25 14.2C23.34 14.2 22 15.674 22 17.5C22 19.326 23.34 20.8 25 20.8C26.66 20.8 28 19.326 28 17.5C28 15.674 26.66 14.2 25 14.2Z" fill="#4E2A8A"/>
<path d="M37.8 33C37.2027 33 36.7333 32.4867 36.7333 31.8333C36.7333 31.18 37.2027 30.6667 37.8 30.6667C38.3973 30.6667 38.8667 30.1533 38.8667 29.5C38.8667 27.9529 38.3048 26.4692 37.3046 25.3752C36.3044 24.2812 34.9478 23.6667 33.5333 23.6667H31.4C30.8027 23.6667 30.3333 23.1533 30.3333 22.5C30.3333 21.8467 30.8027 21.3333 31.4 21.3333C33.1707 21.3333 34.6 19.77 34.6 17.8333C34.6 15.8967 33.1707 14.3333 31.4 14.3333C30.8027 14.3333 30.3333 13.82 30.3333 13.1667C30.3333 12.5133 30.8027 12 31.4 12C32.8145 12 34.171 12.6146 35.1712 13.7085C36.1714 14.8025 36.7333 16.2862 36.7333 17.8333C36.7333 19.28 36.264 20.5867 35.4533 21.6133C38.632 22.5467 41 25.72 41 29.5C41 31.4367 39.5707 33 37.8 33ZM12.2 33C10.4293 33 9 31.4367 9 29.5C9 25.72 11.3467 22.5467 14.5467 21.6133C13.7573 20.5867 13.2667 19.28 13.2667 17.8333C13.2667 16.2862 13.8286 14.8025 14.8288 13.7085C15.829 12.6146 17.1855 12 18.6 12C19.1973 12 19.6667 12.5133 19.6667 13.1667C19.6667 13.82 19.1973 14.3333 18.6 14.3333C16.8293 14.3333 15.4 15.8967 15.4 17.8333C15.4 19.77 16.8293 21.3333 18.6 21.3333C19.1973 21.3333 19.6667 21.8467 19.6667 22.5C19.6667 23.1533 19.1973 23.6667 18.6 23.6667H16.4667C15.0522 23.6667 13.6956 24.2812 12.6954 25.3752C11.6952 26.4692 11.1333 27.9529 11.1333 29.5C11.1333 30.1533 11.6027 30.6667 12.2 30.6667C12.7973 30.6667 13.2667 31.18 13.2667 31.8333C13.2667 32.4867 12.7973 33 12.2 33ZM31.4 40H18.6C16.8293 40 15.4 38.4367 15.4 36.5V34.1667C15.4 29.6633 18.7493 26 22.8667 26H27.1333C31.2507 26 34.6 29.6633 34.6 34.1667V36.5C34.6 38.4367 33.1707 40 31.4 40ZM22.8667 28.3333C21.4522 28.3333 20.0956 28.9479 19.0954 30.0419C18.0952 31.1358 17.5333 32.6196 17.5333 34.1667V36.5C17.5333 37.1533 18.0027 37.6667 18.6 37.6667H31.4C31.9973 37.6667 32.4667 37.1533 32.4667 36.5V34.1667C32.4667 32.6196 31.9048 31.1358 30.9046 30.0419C29.9044 28.9479 28.5478 28.3333 27.1333 28.3333H22.8667Z" fill="#4E2A8A"/>
</g>
</svg>
