<svg width="445" height="90" viewBox="0 0 445 90" fill="none" xmlns="http://www.w3.org/2000/svg">
<rect x="0.75" y="0.75" width="443.5" height="88.5" rx="12.25" fill="white"/>
<rect x="0.75" y="0.75" width="443.5" height="88.5" rx="12.25" stroke="#4E2A8A" stroke-width="1.5"/>
<path d="M28.3906 32.8906V57.1094H52.6094M35.1719 51.2969V46.4531M42.9219 51.2969V40.6406M50.6719 51.2969V34.8281" stroke="#4E2A8A" stroke-width="2.90625" stroke-linecap="round" stroke-linejoin="round"/>
<path d="M113.071 34.1818L118.749 51.3551H118.973L124.641 34.1818H128.987L121.295 56H116.416L108.735 34.1818H113.071ZM131.691 56V39.6364H135.547V56H131.691ZM133.629 37.3139C133.019 37.3139 132.493 37.1115 132.053 36.7067C131.612 36.2947 131.392 35.8011 131.392 35.2259C131.392 34.6435 131.612 34.1499 132.053 33.745C132.493 33.3331 133.019 33.1271 133.629 33.1271C134.247 33.1271 134.773 33.3331 135.206 33.745C135.646 34.1499 135.867 34.6435 135.867 35.2259C135.867 35.8011 135.646 36.2947 135.206 36.7067C134.773 37.1115 134.247 37.3139 133.629 37.3139ZM146.757 56.3196C145.116 56.3196 143.7 55.9787 142.506 55.2969C141.32 54.608 140.408 53.6349 139.768 52.3778C139.129 51.1136 138.81 49.6257 138.81 47.9141C138.81 46.2308 139.129 44.7536 139.768 43.4822C140.415 42.2038 141.317 41.2095 142.474 40.4993C143.632 39.782 144.992 39.4233 146.555 39.4233C147.563 39.4233 148.515 39.5866 149.41 39.9134C150.312 40.233 151.107 40.7301 151.796 41.4048C152.492 42.0795 153.039 42.9389 153.437 43.983C153.835 45.0199 154.033 46.2557 154.033 47.6903V48.8729H140.621V46.2734H150.337C150.33 45.5348 150.17 44.8778 149.857 44.3026C149.545 43.7202 149.108 43.2621 148.547 42.9283C147.993 42.5945 147.347 42.4276 146.608 42.4276C145.82 42.4276 145.127 42.6193 144.531 43.0028C143.934 43.3793 143.469 43.8764 143.135 44.4943C142.808 45.1051 142.641 45.7763 142.634 46.5078V48.777C142.634 49.7287 142.808 50.5455 143.156 51.2273C143.504 51.902 143.991 52.4205 144.616 52.7827C145.241 53.1378 145.972 53.3153 146.81 53.3153C147.371 53.3153 147.879 53.2372 148.334 53.081C148.788 52.9176 149.183 52.6797 149.516 52.3672C149.85 52.0547 150.102 51.6676 150.273 51.206L153.874 51.6108C153.646 52.5625 153.213 53.3935 152.574 54.1037C151.942 54.8068 151.132 55.3537 150.145 55.7443C149.158 56.1278 148.028 56.3196 146.757 56.3196ZM160.585 56L155.962 39.6364H159.893L162.769 51.142H162.918L165.859 39.6364H169.747L172.688 51.0781H172.847L175.681 39.6364H179.623L174.989 56H170.972L167.904 44.9418H167.68L164.612 56H160.585ZM197.321 56H189.927V34.1818H197.47C199.636 34.1818 201.497 34.6186 203.052 35.4922C204.615 36.3587 205.815 37.6051 206.653 39.2315C207.491 40.858 207.91 42.804 207.91 45.0696C207.91 47.3423 207.488 49.2955 206.643 50.929C205.805 52.5625 204.594 53.8161 203.01 54.6896C201.433 55.5632 199.537 56 197.321 56ZM193.88 52.5803H197.129C198.649 52.5803 199.917 52.3033 200.932 51.7493C201.948 51.1882 202.711 50.3537 203.223 49.2457C203.734 48.1307 203.99 46.7386 203.99 45.0696C203.99 43.4006 203.734 42.0156 203.223 40.9148C202.711 39.8068 201.955 38.9794 200.954 38.4325C199.959 37.8786 198.724 37.6016 197.246 37.6016H193.88V52.5803ZM216.204 56.3303C215.167 56.3303 214.233 56.1456 213.402 55.7763C212.578 55.3999 211.925 54.8459 211.442 54.1143C210.966 53.3828 210.728 52.4808 210.728 51.4084C210.728 50.4851 210.899 49.7216 211.24 49.1179C211.58 48.5142 212.046 48.0312 212.635 47.669C213.225 47.3068 213.889 47.0334 214.627 46.8487C215.373 46.657 216.144 46.5185 216.939 46.4332C217.898 46.3338 218.676 46.245 219.272 46.1669C219.869 46.0817 220.302 45.9538 220.572 45.7834C220.849 45.6058 220.987 45.3324 220.987 44.9631V44.8991C220.987 44.0966 220.749 43.4751 220.274 43.0348C219.798 42.5945 219.112 42.3743 218.218 42.3743C217.273 42.3743 216.524 42.5803 215.97 42.9922C215.423 43.4041 215.053 43.8906 214.862 44.4517L211.261 43.9403C211.545 42.946 212.014 42.1151 212.667 41.4474C213.32 40.7727 214.119 40.2685 215.064 39.9347C216.009 39.5938 217.053 39.4233 218.196 39.4233C218.985 39.4233 219.769 39.5156 220.551 39.7003C221.332 39.8849 222.046 40.1903 222.692 40.6165C223.338 41.0355 223.857 41.6072 224.247 42.3317C224.645 43.0561 224.844 43.9616 224.844 45.0483V56H221.137V53.7521H221.009C220.774 54.2067 220.444 54.6328 220.018 55.0305C219.599 55.4212 219.07 55.7372 218.431 55.9787C217.798 56.2131 217.056 56.3303 216.204 56.3303ZM217.205 53.4964C217.98 53.4964 218.651 53.3437 219.219 53.0384C219.787 52.7259 220.224 52.3139 220.529 51.8026C220.842 51.2912 220.998 50.7337 220.998 50.13V48.2017C220.877 48.3011 220.671 48.3935 220.38 48.4787C220.096 48.5639 219.776 48.6385 219.421 48.7024C219.066 48.7663 218.715 48.8232 218.367 48.8729C218.019 48.9226 217.717 48.9652 217.461 49.0007C216.886 49.0788 216.371 49.2067 215.916 49.3842C215.462 49.5618 215.103 49.8104 214.84 50.13C214.578 50.4425 214.446 50.8473 214.446 51.3445C214.446 52.0547 214.705 52.5909 215.224 52.9531C215.742 53.3153 216.403 53.4964 217.205 53.4964ZM241.655 43.9616L238.139 44.3452C238.04 43.9901 237.866 43.6562 237.617 43.3438C237.376 43.0312 237.049 42.7791 236.637 42.5874C236.225 42.3956 235.721 42.2997 235.124 42.2997C234.322 42.2997 233.647 42.4737 233.1 42.8217C232.561 43.1697 232.294 43.6207 232.301 44.1747C232.294 44.6506 232.468 45.0376 232.823 45.3359C233.186 45.6342 233.782 45.8793 234.613 46.071L237.404 46.6676C238.953 47.0014 240.103 47.5305 240.856 48.255C241.616 48.9794 241.999 49.9276 242.007 51.0994C241.999 52.1293 241.698 53.0384 241.101 53.8267C240.512 54.608 239.691 55.2187 238.64 55.6591C237.589 56.0994 236.382 56.3196 235.018 56.3196C233.015 56.3196 231.403 55.9006 230.181 55.0625C228.96 54.2173 228.232 53.0419 227.997 51.5362L231.758 51.174C231.928 51.9126 232.291 52.4702 232.845 52.8466C233.399 53.223 234.119 53.4112 235.007 53.4112C235.923 53.4112 236.659 53.223 237.213 52.8466C237.774 52.4702 238.054 52.005 238.054 51.451C238.054 50.9822 237.873 50.5952 237.511 50.2898C237.156 49.9844 236.602 49.75 235.849 49.5866L233.058 49.0007C231.488 48.674 230.327 48.1236 229.574 47.3494C228.821 46.5682 228.448 45.581 228.455 44.3878C228.448 43.3793 228.722 42.5057 229.276 41.767C229.837 41.0213 230.615 40.446 231.609 40.0412C232.61 39.6293 233.764 39.4233 235.071 39.4233C236.989 39.4233 238.498 39.8317 239.599 40.6484C240.707 41.4652 241.392 42.5696 241.655 43.9616ZM249.043 46.4119V56H245.187V34.1818H248.958V42.4169H249.15C249.533 41.4936 250.126 40.7656 250.929 40.233C251.738 39.6932 252.768 39.4233 254.018 39.4233C255.155 39.4233 256.145 39.6612 256.991 40.1371C257.836 40.6129 258.489 41.3089 258.951 42.2251C259.42 43.1413 259.654 44.2599 259.654 45.581V56H255.797V46.1776C255.797 45.0767 255.513 44.2209 254.945 43.6101C254.384 42.9922 253.596 42.6832 252.58 42.6832C251.898 42.6832 251.287 42.8324 250.748 43.1307C250.215 43.4219 249.796 43.8445 249.491 44.3984C249.192 44.9524 249.043 45.6236 249.043 46.4119ZM263.756 56V34.1818H267.612V42.3423H267.772C267.971 41.9446 268.251 41.522 268.613 41.0746C268.976 40.62 269.466 40.233 270.084 39.9134C270.702 39.5866 271.49 39.4233 272.449 39.4233C273.713 39.4233 274.853 39.7464 275.868 40.3928C276.891 41.032 277.701 41.9801 278.297 43.2372C278.901 44.4872 279.203 46.0213 279.203 47.8395C279.203 49.6364 278.908 51.1634 278.319 52.4205C277.729 53.6776 276.927 54.6364 275.911 55.2969C274.895 55.9574 273.745 56.2876 272.459 56.2876C271.522 56.2876 270.744 56.1314 270.126 55.8189C269.508 55.5064 269.011 55.13 268.635 54.6896C268.265 54.2422 267.978 53.8196 267.772 53.4219H267.548V56H263.756ZM267.537 47.8182C267.537 48.8764 267.687 49.8033 267.985 50.5987C268.29 51.3942 268.727 52.0156 269.295 52.4631C269.871 52.9034 270.567 53.1236 271.383 53.1236C272.236 53.1236 272.949 52.8963 273.525 52.4418C274.1 51.9801 274.533 51.3516 274.824 50.5561C275.123 49.7536 275.272 48.8409 275.272 47.8182C275.272 46.8026 275.126 45.9006 274.835 45.1122C274.544 44.3239 274.111 43.706 273.535 43.2585C272.96 42.8111 272.243 42.5874 271.383 42.5874C270.559 42.5874 269.86 42.804 269.285 43.2372C268.709 43.6705 268.273 44.2777 267.974 45.0589C267.683 45.8402 267.537 46.7599 267.537 47.8182ZM289.619 56.3196C288.021 56.3196 286.636 55.968 285.464 55.2649C284.293 54.5618 283.384 53.5781 282.737 52.3139C282.098 51.0497 281.778 49.5724 281.778 47.8821C281.778 46.1918 282.098 44.7109 282.737 43.4396C283.384 42.1683 284.293 41.1811 285.464 40.478C286.636 39.7749 288.021 39.4233 289.619 39.4233C291.217 39.4233 292.602 39.7749 293.774 40.478C294.946 41.1811 295.852 42.1683 296.491 43.4396C297.137 44.7109 297.46 46.1918 297.46 47.8821C297.46 49.5724 297.137 51.0497 296.491 52.3139C295.852 53.5781 294.946 54.5618 293.774 55.2649C292.602 55.968 291.217 56.3196 289.619 56.3196ZM289.641 53.2301C290.507 53.2301 291.232 52.9922 291.814 52.5163C292.396 52.0334 292.83 51.3871 293.114 50.5774C293.405 49.7678 293.55 48.8658 293.55 47.8714C293.55 46.87 293.405 45.9645 293.114 45.1548C292.83 44.3381 292.396 43.6882 291.814 43.2053C291.232 42.7223 290.507 42.4808 289.641 42.4808C288.753 42.4808 288.014 42.7223 287.425 43.2053C286.842 43.6882 286.406 44.3381 286.114 45.1548C285.83 45.9645 285.688 46.87 285.688 47.8714C285.688 48.8658 285.83 49.7678 286.114 50.5774C286.406 51.3871 286.842 52.0334 287.425 52.5163C288.014 52.9922 288.753 53.2301 289.641 53.2301ZM305.442 56.3303C304.405 56.3303 303.471 56.1456 302.64 55.7763C301.817 55.3999 301.163 54.8459 300.68 54.1143C300.204 53.3828 299.966 52.4808 299.966 51.4084C299.966 50.4851 300.137 49.7216 300.478 49.1179C300.819 48.5142 301.284 48.0312 301.873 47.669C302.463 47.3068 303.127 47.0334 303.866 46.8487C304.611 46.657 305.382 46.5185 306.177 46.4332C307.136 46.3338 307.914 46.245 308.51 46.1669C309.107 46.0817 309.54 45.9538 309.81 45.7834C310.087 45.6058 310.226 45.3324 310.226 44.9631V44.8991C310.226 44.0966 309.988 43.4751 309.512 43.0348C309.036 42.5945 308.351 42.3743 307.456 42.3743C306.511 42.3743 305.762 42.5803 305.208 42.9922C304.661 43.4041 304.292 43.8906 304.1 44.4517L300.499 43.9403C300.783 42.946 301.252 42.1151 301.905 41.4474C302.559 40.7727 303.358 40.2685 304.302 39.9347C305.247 39.5938 306.291 39.4233 307.434 39.4233C308.223 39.4233 309.008 39.5156 309.789 39.7003C310.57 39.8849 311.284 40.1903 311.93 40.6165C312.577 41.0355 313.095 41.6072 313.486 42.3317C313.883 43.0561 314.082 43.9616 314.082 45.0483V56H310.375V53.7521H310.247C310.013 54.2067 309.682 54.6328 309.256 55.0305C308.837 55.4212 308.308 55.7372 307.669 55.9787C307.037 56.2131 306.295 56.3303 305.442 56.3303ZM306.444 53.4964C307.218 53.4964 307.889 53.3437 308.457 53.0384C309.025 52.7259 309.462 52.3139 309.768 51.8026C310.08 51.2912 310.236 50.7337 310.236 50.13V48.2017C310.116 48.3011 309.91 48.3935 309.618 48.4787C309.334 48.5639 309.015 48.6385 308.66 48.7024C308.305 48.7663 307.953 48.8232 307.605 48.8729C307.257 48.9226 306.955 48.9652 306.699 49.0007C306.124 49.0788 305.609 49.2067 305.155 49.3842C304.7 49.5618 304.341 49.8104 304.079 50.13C303.816 50.4425 303.684 50.8473 303.684 51.3445C303.684 52.0547 303.944 52.5909 304.462 52.9531C304.981 53.3153 305.641 53.4964 306.444 53.4964ZM317.96 56V39.6364H321.699V42.3636H321.87C322.168 41.419 322.68 40.6911 323.404 40.1797C324.135 39.6612 324.97 39.402 325.907 39.402C326.121 39.402 326.358 39.4126 326.621 39.4339C326.891 39.4482 327.115 39.473 327.292 39.5085V43.0561C327.129 42.9993 326.87 42.9496 326.515 42.907C326.167 42.8572 325.829 42.8324 325.503 42.8324C324.8 42.8324 324.167 42.9851 323.606 43.2905C323.052 43.5888 322.616 44.0043 322.296 44.5369C321.976 45.0696 321.817 45.6839 321.817 46.38V56H317.96ZM335.253 56.2876C333.968 56.2876 332.817 55.9574 331.801 55.2969C330.786 54.6364 329.983 53.6776 329.394 52.4205C328.804 51.1634 328.51 49.6364 328.51 47.8395C328.51 46.0213 328.808 44.4872 329.404 43.2372C330.008 41.9801 330.821 41.032 331.844 40.3928C332.867 39.7464 334.007 39.4233 335.264 39.4233C336.223 39.4233 337.011 39.5866 337.629 39.9134C338.247 40.233 338.737 40.62 339.099 41.0746C339.461 41.522 339.742 41.9446 339.941 42.3423H340.1V34.1818H343.968V56H340.175V53.4219H339.941C339.742 53.8196 339.454 54.2422 339.078 54.6896C338.701 55.13 338.204 55.5064 337.586 55.8189C336.968 56.1314 336.191 56.2876 335.253 56.2876ZM336.329 53.1236C337.146 53.1236 337.842 52.9034 338.417 52.4631C338.993 52.0156 339.429 51.3942 339.728 50.5987C340.026 49.8033 340.175 48.8764 340.175 47.8182C340.175 46.7599 340.026 45.8402 339.728 45.0589C339.436 44.2777 339.003 43.6705 338.428 43.2372C337.86 42.804 337.16 42.5874 336.329 42.5874C335.47 42.5874 334.752 42.8111 334.177 43.2585C333.602 43.706 333.169 44.3239 332.877 45.1122C332.586 45.9006 332.441 46.8026 332.441 47.8182C332.441 48.8409 332.586 49.7536 332.877 50.5561C333.176 51.3516 333.613 51.9801 334.188 52.4418C334.77 52.8963 335.484 53.1236 336.329 53.1236Z" fill="#4E2A8A"/>
<rect width="21" height="42" transform="translate(399 24)" fill="white"/>
<path d="M403.291 35.5149L405.148 33.6599L415.261 43.7697C415.424 43.9317 415.553 44.1243 415.642 44.3365C415.73 44.5487 415.775 44.7762 415.775 45.006C415.775 45.2359 415.73 45.4634 415.642 45.6756C415.553 45.8878 415.424 46.0804 415.261 46.2424L405.148 56.3574L403.293 54.5024L412.785 45.0087L403.291 35.5149Z" fill="#6155F5"/>
</svg>
