<svg width="69" height="69" viewBox="0 0 69 69" fill="none" xmlns="http://www.w3.org/2000/svg">
<path fill-rule="evenodd" clip-rule="evenodd" d="M34.2087 58.92C27.2388 55.3176 21.657 49.1048 18.4587 41.3895C15.3368 33.8573 14.6825 25.3654 16.6073 17.3613L34.2087 11.093L51.8108 17.3613C53.7595 25.4629 53.0649 34.061 49.848 41.6561C46.6312 49.2511 41.0962 55.361 34.2087 58.92Z" fill="#2F80ED"/>
<path d="M34.2087 58.9199L33.5969 60.357C33.7885 60.456 33.9975 60.5073 34.2091 60.5073C34.4207 60.5073 34.6297 60.456 34.8213 60.357L34.2087 58.9199ZM16.6074 17.3612L16.1642 15.8503C15.9347 15.932 15.7275 16.0759 15.5616 16.2687C15.3956 16.4615 15.2762 16.6971 15.2144 16.9539L16.6074 17.3612ZM34.2087 11.093L34.652 9.58206C34.3638 9.47948 34.0537 9.47948 33.7655 9.58206L34.2087 11.093ZM51.8108 17.3612L53.2038 16.9547C53.1421 16.6978 53.0228 16.462 52.8568 16.269C52.6909 16.0761 52.4836 15.9321 52.254 15.8503L51.8108 17.3612ZM34.822 57.4821C33.5794 56.8402 32.3761 56.1082 31.2216 55.2907L29.6636 57.9624C30.9253 58.8559 32.2396 59.6562 33.5976 60.3578L34.822 57.4821ZM31.2216 55.2907C26.2167 51.7465 22.2425 46.6922 19.7711 40.7296L17.1479 42.0492C19.8491 48.5655 24.1935 54.0892 29.6636 57.9624L31.2216 55.2907ZM19.7711 40.7296C17.2992 34.7676 16.4347 28.1485 17.2805 21.6605L14.4267 21.2079C13.5017 28.2987 14.4467 35.533 17.1479 42.0492L19.7711 40.7296ZM17.2805 21.6605C17.4514 20.3486 17.6916 19.0488 17.9997 17.7677L15.2144 16.9539C14.8775 18.3542 14.6143 19.7748 14.4274 21.2087L17.2805 21.6605ZM17.0499 18.8721L34.6512 12.6039L33.7655 9.58206L16.1635 15.8503L17.0499 18.8721ZM33.7648 12.6039L51.3669 18.8721L52.254 15.8503L34.6512 9.58206L33.7648 12.6039ZM50.4163 17.7677C50.7247 19.0488 50.9651 20.3486 51.1363 21.6605L53.9901 21.2087C53.8029 19.7754 53.5409 18.3544 53.2038 16.9547L50.4163 17.7677ZM51.1363 21.6605C51.9827 28.1486 51.1187 34.768 48.6471 40.7304L51.2696 42.0492C53.9705 35.5329 54.9146 28.2986 53.9894 21.2079L51.1363 21.6605ZM48.6471 40.7304C46.1756 46.6927 42.2007 51.7467 37.1959 55.2907L38.7539 57.9624C44.2243 54.0893 48.5682 48.5656 51.2696 42.0492L48.6471 40.7304ZM37.1959 55.2907C36.0413 56.1082 34.8388 56.8402 33.5962 57.4821L34.8206 60.3578C36.1784 59.6561 37.4924 58.8559 38.7539 57.9624L37.1959 55.2907Z" fill="#2F80ED"/>
<path fill-rule="evenodd" clip-rule="evenodd" d="M34.2088 49.8933C29.7339 47.5915 26.1464 43.6137 24.0857 38.6692C22.0784 33.8445 21.657 28.4008 22.8937 23.2712L34.2088 19.2546L45.5238 23.2705C45.7309 24.1263 45.8923 24.9949 46.0081 25.8762C46.5779 30.2291 45.9961 34.6706 44.3326 38.6684C42.2718 43.6134 38.684 47.5914 34.2088 49.8933Z" fill="#56CCF2"/>
<path d="M34.2088 49.8937L33.5991 51.3323C33.79 51.4305 33.9981 51.4814 34.2088 51.4814C34.4195 51.4814 34.6276 51.4305 34.8185 51.3323L34.2088 49.8937ZM22.8937 23.2709L22.452 21.7592C22.2222 21.8407 22.0147 21.9844 21.8485 22.1772C21.6823 22.3701 21.5627 22.6058 21.5007 22.8628L22.8937 23.2709ZM34.2088 19.255L34.6505 17.7441C34.3633 17.6422 34.0543 17.6422 33.767 17.7441L34.2088 19.255ZM45.5238 23.2709L46.9169 22.8628C46.8549 22.6058 46.7353 22.3701 46.5691 22.1772C46.4029 21.9844 46.1954 21.8407 45.9656 21.7592L45.5238 23.2709ZM34.8185 48.455C34.0392 48.054 33.2849 47.5965 32.5606 47.0855L31.0062 49.7603C31.838 50.3469 32.7042 50.872 33.5991 51.3323L34.8185 48.455ZM32.5606 47.0855C29.4323 44.8785 26.9454 41.7278 25.3959 38.0082L22.7755 39.3309C24.5552 43.6045 27.4122 47.2246 31.0062 49.7603L32.5606 47.0855ZM25.3959 38.0082C23.8478 34.2881 23.3063 30.155 23.8363 26.1045L20.9833 25.6503C20.3741 30.3055 20.9964 35.0555 22.7755 39.3309L25.3959 38.0082ZM23.8363 26.1045C23.9444 25.2841 24.0946 24.4758 24.2868 23.6797L21.5007 22.8628C21.2796 23.7802 21.1068 24.7109 20.9833 25.6503L23.8363 26.1045ZM23.3355 24.7825L34.6505 20.7675L33.767 17.7441L22.452 21.7592L23.3355 24.7825ZM33.767 20.7675L45.0821 24.7833L45.9663 21.76L34.6505 17.7441L33.767 20.7675ZM44.1315 23.6797C44.3237 24.4758 44.4736 25.2841 44.5812 26.1045L47.435 25.6503C47.3112 24.7112 47.1382 23.7807 46.9169 22.8636L44.1315 23.6797ZM44.5812 26.1045C45.1115 30.155 44.5703 34.288 43.0224 38.0082L45.6428 39.3309C47.4215 35.0557 48.0436 30.306 47.4343 25.6511L44.5812 26.1045ZM43.0224 38.0082C41.4727 41.7279 38.9856 44.8786 35.8569 47.0855L37.4114 49.7603C41.0057 47.2247 43.8629 43.6046 45.6428 39.3309L43.0224 38.0082ZM35.8569 47.0855C35.1326 47.5962 34.3783 48.0535 33.5991 48.4543L34.8185 51.3323C35.7136 50.8721 36.5793 50.3469 37.4114 49.7603L35.8569 47.0855Z" fill="#56CCF2"/>
</svg>
