<svg width="40" height="40" viewBox="0 0 40 40" fill="none" xmlns="http://www.w3.org/2000/svg">
<circle cx="20" cy="20" r="20" fill="#8A62D8" fill-opacity="0.3"/>
<g opacity="0.86">
<path d="M12.6152 18.9299C12.6152 15.8432 12.6152 14.2994 13.4987 13.3409C14.3822 12.3824 15.8032 12.3816 18.646 12.3816H21.6613C24.5041 12.3816 25.9258 12.3816 26.8086 13.3409C27.6913 14.3002 27.6921 15.8432 27.6921 18.9299V20.567C27.6921 23.6537 27.6921 25.1974 26.8086 26.156C25.9251 27.1145 24.5041 27.1153 21.6613 27.1153H18.646C15.8032 27.1153 14.3815 27.1153 13.4987 26.156C12.616 25.1966 12.6152 23.6537 12.6152 20.567V18.9299Z" stroke="#574D69" stroke-width="2"/>
<path d="M16.3845 12.3816V11.1538M23.9229 12.3816V11.1538M12.9922 16.4743H27.3152" stroke="#574D69" stroke-width="2" stroke-linecap="round"/>
<path d="M20.0674 19.9153L20.1533 19.8362L20.2402 19.9153M20.1533 19.8362L20.0674 19.9153M20.1533 19.8362L20.2402 19.9153M20.0674 19.9153C20.0168 19.9 19.9766 19.8745 19.9512 19.8469C19.9331 19.8273 19.9224 19.8082 19.916 19.7913L19.9082 19.7483C19.9082 19.7255 19.9152 19.6887 19.9512 19.6497C19.9898 19.6077 20.0612 19.5667 20.1543 19.5667L20.2197 19.5745C20.2602 19.5834 20.2943 19.6 20.3213 19.6194L20.3564 19.6497C20.3924 19.6887 20.4004 19.7255 20.4004 19.7483C20.4004 19.7596 20.3979 19.7745 20.3916 19.7913L20.3564 19.8469C20.331 19.8746 20.2909 19.9 20.2402 19.9153C20.2142 19.9232 20.1858 19.9299 20.1543 19.9299C20.1225 19.9299 20.0936 19.9232 20.0674 19.9153ZM24.1689 23.0227C24.1689 23.0455 24.1619 23.0823 24.126 23.1213C24.0874 23.1633 24.0159 23.2043 23.9229 23.2043C23.83 23.2043 23.7593 23.1632 23.7207 23.1213C23.7027 23.1018 23.6919 23.0826 23.6855 23.0657L23.6768 23.0227C23.6768 22.9999 23.6846 22.9632 23.7207 22.9241L23.7559 22.8938C23.7964 22.8647 23.8532 22.8411 23.9229 22.8411C23.9928 22.8411 24.0502 22.8645 24.0908 22.8938L24.126 22.9241L24.1611 22.9797C24.1674 22.9965 24.1689 23.0114 24.1689 23.0227ZM20.3916 23.0657L20.3564 23.1213C20.3179 23.1632 20.2472 23.2042 20.1543 23.2043C20.0612 23.2043 19.9898 23.1633 19.9512 23.1213C19.9331 23.1017 19.9224 23.0826 19.916 23.0657L19.9082 23.0227C19.9082 23 19.9152 22.9632 19.9512 22.9241L19.9863 22.8938C20.0269 22.8646 20.0844 22.8411 20.1543 22.8411L20.2197 22.8479C20.2603 22.8569 20.2943 22.8744 20.3213 22.8938L20.3564 22.9241L20.3916 22.9797C20.3979 22.9966 20.4004 23.0114 20.4004 23.0227C20.4004 23.0341 20.398 23.0488 20.3916 23.0657ZM16.6309 23.0227C16.6308 23.0455 16.6229 23.0822 16.5869 23.1213C16.5483 23.1632 16.4777 23.2043 16.3848 23.2043C16.2919 23.2043 16.2213 23.1632 16.1826 23.1213C16.1645 23.1017 16.1529 23.0827 16.1465 23.0657L16.1387 23.0227C16.1387 22.9999 16.1466 22.9632 16.1826 22.9241L16.2168 22.8938C16.2574 22.8645 16.3147 22.8411 16.3848 22.8411L16.4502 22.8479C16.4911 22.8569 16.5256 22.8742 16.5527 22.8938L16.5869 22.9241L16.623 22.9797C16.6293 22.9965 16.6309 23.0114 16.6309 23.0227ZM24.1689 19.7483C24.1689 19.771 24.1618 19.8079 24.126 19.8469C24.0874 19.8888 24.0159 19.9299 23.9229 19.9299C23.8299 19.9299 23.7593 19.8888 23.7207 19.8469C23.6847 19.8078 23.6768 19.7711 23.6768 19.7483C23.6768 19.7255 23.6847 19.6887 23.7207 19.6497L23.7559 19.6194C23.7964 19.5903 23.8533 19.5667 23.9229 19.5667C23.9927 19.5667 24.0502 19.5902 24.0908 19.6194L24.126 19.6497L24.1611 19.7053C24.1675 19.7221 24.1689 19.7369 24.1689 19.7483ZM16.6309 19.7483C16.6309 19.7711 16.623 19.8078 16.5869 19.8469C16.5483 19.8888 16.4778 19.9299 16.3848 19.9299C16.2918 19.9299 16.2212 19.8888 16.1826 19.8469C16.1644 19.8272 16.1529 19.8083 16.1465 19.7913L16.1387 19.7483C16.1387 19.7255 16.1467 19.6887 16.1826 19.6497L16.2168 19.6194C16.2574 19.5901 16.3148 19.5667 16.3848 19.5667L16.4502 19.5745C16.511 19.5879 16.558 19.6183 16.5869 19.6497C16.6229 19.6887 16.6308 19.7255 16.6309 19.7483Z" fill="black" stroke="#574D69" stroke-width="2"/>
</g>
</svg>
