<svg width="41" height="51" viewBox="0 0 41 51" fill="none" xmlns="http://www.w3.org/2000/svg">
<path fill-rule="evenodd" clip-rule="evenodd" d="M20.127 49.4148C13.1571 45.8125 7.57529 39.5996 4.37705 31.8844C1.25509 24.3522 0.600792 15.8603 2.52568 7.85615L20.127 1.58789L37.7291 7.85615C39.6779 15.9577 38.9832 24.5559 35.7664 32.1509C32.5495 39.746 27.0146 45.8559 20.127 49.4148Z" fill="#2F80ED"/>
<path d="M20.1271 49.4148L19.5152 50.8518C19.7068 50.9509 19.9158 51.0022 20.1274 51.0022C20.3391 51.0022 20.5481 50.9509 20.7396 50.8518L20.1271 49.4148ZM2.52573 7.85609L2.08253 6.3452C1.85304 6.42691 1.64584 6.57076 1.47989 6.76357C1.31395 6.95638 1.19457 7.19198 1.1327 7.44879L2.52573 7.85609ZM20.1271 1.58783L20.5703 0.0769371C20.2822 -0.0256457 19.972 -0.0256457 19.6839 0.0769371L20.1271 1.58783ZM37.7292 7.85609L39.1222 7.44959C39.0604 7.19263 38.9411 6.95686 38.7751 6.76391C38.6092 6.57095 38.4019 6.42698 38.1724 6.3452L37.7292 7.85609ZM20.7404 47.9769C19.4977 47.3351 18.2945 46.6031 17.14 45.7856L15.5819 48.4573C16.8437 49.3508 18.1579 50.151 19.516 50.8526L20.7404 47.9769ZM17.14 45.7856C12.135 42.2414 8.16087 37.187 5.68942 31.2245L3.06623 32.5441C5.76748 39.0604 10.1118 44.5841 15.5819 48.4573L17.14 45.7856ZM5.68942 31.2245C3.21752 25.2625 2.353 18.6433 3.19883 12.1553L0.345023 11.7028C-0.579994 18.7936 0.36504 26.0278 3.06623 32.5441L5.68942 31.2245ZM3.19883 12.1553C3.36978 10.8435 3.60993 9.5437 3.91804 8.2626L1.1327 7.44879C0.795884 8.84904 0.532639 10.2697 0.345743 11.7036L3.19883 12.1553ZM2.96822 9.36698L20.5696 3.09872L19.6839 0.0769371L2.08181 6.3452L2.96822 9.36698ZM19.6832 3.09872L37.2852 9.36698L38.1724 6.3452L20.5696 0.0769371L19.6832 3.09872ZM36.3347 8.2626C36.643 9.54368 36.8834 10.8435 37.0546 12.1553L39.9084 11.7036C39.7212 10.2702 39.4592 8.8493 39.1222 7.44959L36.3347 8.2626ZM37.0546 12.1553C37.901 18.6435 37.037 25.2629 34.5655 31.2253L37.1879 32.5441C39.8889 26.0277 40.8329 18.7935 39.9077 11.7028L37.0546 12.1553ZM34.5655 31.2253C32.0939 37.1875 28.119 42.2416 23.1142 45.7856L24.6723 48.4573C30.1426 44.5842 34.4865 39.0605 37.1879 32.5441L34.5655 31.2253ZM23.1142 45.7856C21.9597 46.6031 20.7571 47.3351 19.5145 47.9769L20.7389 50.8526C22.0967 50.151 23.4107 49.3508 24.6723 48.4573L23.1142 45.7856Z" fill="#2F80ED"/>
<path fill-rule="evenodd" clip-rule="evenodd" d="M20.1271 40.3882C15.6523 38.0863 12.0648 34.1086 10.004 29.164C7.99673 24.3394 7.57533 18.8956 8.81208 13.7661L20.1271 9.74951L31.4422 13.7653C31.6492 14.6212 31.8107 15.4898 31.9265 16.3711C32.4962 20.7239 31.9144 25.1654 30.2509 29.1633C28.1902 34.1083 24.6024 38.0863 20.1271 40.3882Z" fill="#56CCF2"/>
<path d="M20.1271 40.3886L19.5174 41.8272C19.7083 41.9254 19.9164 41.9763 20.1271 41.9763C20.3378 41.9763 20.5459 41.9254 20.7368 41.8272L20.1271 40.3886ZM8.81206 13.7657L8.3703 12.254C8.14054 12.3355 7.93304 12.4793 7.76683 12.6721C7.60062 12.8649 7.48103 13.1006 7.41903 13.3576L8.81206 13.7657ZM20.1271 9.74992L20.5689 8.23902C20.2816 8.13712 19.9726 8.13712 19.6854 8.23902L20.1271 9.74992ZM31.4422 13.7657L32.8352 13.3576C32.7732 13.1006 32.6536 12.8649 32.4874 12.6721C32.3212 12.4793 32.1137 12.3355 31.8839 12.254L31.4422 13.7657ZM20.7368 38.9499C19.9575 38.5489 19.2033 38.0914 18.479 37.5804L16.9245 40.2552C17.7563 40.8418 18.6225 41.3669 19.5174 41.8272L20.7368 38.9499ZM18.479 37.5804C15.3506 35.3734 12.8637 32.2226 11.3142 28.5031L8.69387 29.8258C10.4736 34.0994 13.3305 37.7195 16.9245 40.2552L18.479 37.5804ZM11.3142 28.5031C9.7661 24.783 9.22464 20.6499 9.75468 16.5993L6.90159 16.1452C6.29241 20.8004 6.9147 25.5504 8.69387 29.8258L11.3142 28.5031ZM9.75468 16.5993C9.86278 15.7789 10.0129 14.9707 10.2051 14.1746L7.41903 13.3576C7.1979 14.2751 7.02514 15.2058 6.90159 16.1452L9.75468 16.5993ZM9.25382 15.2774L20.5689 11.2624L19.6854 8.23902L8.3703 12.254L9.25382 15.2774ZM19.6854 11.2624L31.0004 15.2782L31.8847 12.2548L20.5689 8.23902L19.6854 11.2624ZM30.0499 14.1746C30.242 14.9707 30.3919 15.7789 30.4996 16.5993L33.3534 16.1452C33.2296 15.2061 33.0566 14.2756 32.8352 13.3584L30.0499 14.1746ZM30.4996 16.5993C31.0298 20.6498 30.4886 24.7829 28.9408 28.5031L31.5611 29.8258C33.3399 25.5506 33.9619 20.8009 33.3526 16.146L30.4996 16.5993ZM28.9408 28.5031C27.3911 32.2227 24.9039 35.3735 21.7753 37.5804L23.3297 40.2552C26.924 37.7196 29.7812 34.0995 31.5611 29.8258L28.9408 28.5031ZM21.7753 37.5804C21.0509 38.0911 20.2967 38.5483 19.5174 38.9491L20.7368 41.8272C21.6319 41.3669 22.4977 40.8418 23.3297 40.2552L21.7753 37.5804Z" fill="#56CCF2"/>
</svg>
