<svg width="105" height="105" viewBox="0 0 105 105" fill="none" xmlns="http://www.w3.org/2000/svg">
<rect width="105" height="105" rx="52.5" fill="#B99BF2" fill-opacity="0.4"/>
<path d="M85.1977 77H19.8003C18.2621 76.9984 16.7874 76.4032 15.6999 75.3451C14.6125 74.287 14.0011 72.8524 14 71.3562V32.6438C14.0011 31.1476 14.6125 29.713 15.6999 28.6549C16.7874 27.5968 18.2621 27.0016 19.8003 27H85.1977C86.7361 27.0016 88.211 27.5967 89.2987 28.6548C90.3865 29.7129 90.9984 31.1475 91 32.6438V71.3582C90.9973 72.854 90.385 74.2878 89.2974 75.3453C88.2098 76.4029 86.7355 76.9979 85.1977 77ZM19.8003 28.9342C18.7898 28.9358 17.8212 29.3269 17.1068 30.0219C16.3923 30.7169 15.9902 31.659 15.9885 32.6418V71.3562C15.9902 72.339 16.3923 73.2811 17.1068 73.9761C17.8212 74.6711 18.7898 75.0622 19.8003 75.0638H85.1977C86.2081 75.0622 87.1767 74.6711 87.8912 73.9761C88.6057 73.2811 89.0078 72.339 89.0094 71.3562V32.6438C89.0078 31.661 88.6057 30.7189 87.8912 30.0239C87.1767 29.3289 86.2081 28.9378 85.1977 28.9362L19.8003 28.9342Z" fill="#4E2A8A"/>
<path d="M17.0443 77C16.8362 76.9992 16.6331 76.9402 16.4608 76.8306C16.2885 76.7211 16.1548 76.5659 16.0767 76.3847C15.9986 76.2036 15.9796 76.0047 16.0222 75.8134C16.0647 75.6221 16.1669 75.4471 16.3157 75.3105L36.0878 57.3777C36.2876 57.196 36.5262 57.1253 36.8378 57.1011C37.1163 57.1091 37.3806 57.2184 37.575 57.4059L45.89 65.6133L69.2489 43.6051C69.3455 43.5134 69.4604 43.4405 69.587 43.3905C69.7136 43.3406 69.8495 43.3146 69.9869 43.314C70.1242 43.3135 70.2603 43.3383 70.3874 43.3872C70.5145 43.4362 70.6301 43.5081 70.7275 43.599L75.4792 48.0096L87.3983 36.9661H81.8235C81.5459 36.9661 81.2797 36.8625 81.0834 36.6781C80.8871 36.4938 80.7768 36.2438 80.7768 35.983C80.7768 35.7223 80.8871 35.4723 81.0834 35.2879C81.2797 35.1036 81.5459 35 81.8235 35H89.9515C90.1594 35.0001 90.3626 35.0581 90.5353 35.1669C90.708 35.2756 90.8423 35.4301 90.9213 35.6108C91.0003 35.7914 91.0204 35.99 90.979 36.1814C90.9375 36.3727 90.8365 36.5482 90.6886 36.6855L76.2164 50.0927C76.0201 50.2745 75.7555 50.3763 75.4799 50.3759C75.2042 50.3755 74.9399 50.273 74.7442 50.0907L69.9989 45.6862L46.6121 67.7187C46.4122 67.9084 46.1479 67.9488 45.8577 68.0094C45.5762 68.0035 45.3084 67.894 45.112 67.7046L36.7841 59.483L17.7707 76.7234C17.5767 76.9018 17.3157 77.0012 17.0443 77Z" fill="#4E2A8A"/>
<path d="M89.9611 44.3958C89.8247 44.3958 89.6896 44.3704 89.5635 44.3211C89.4375 44.2718 89.323 44.1995 89.2265 44.1084C89.13 44.0173 89.0535 43.9091 89.0013 43.79C88.9491 43.671 88.9222 43.5434 88.9222 43.4145V35.9813C88.9222 35.8524 88.9491 35.7248 89.0013 35.6058C89.0535 35.4867 89.13 35.3785 89.2265 35.2874C89.323 35.1963 89.4375 35.124 89.5635 35.0747C89.6896 35.0254 89.8247 35 89.9611 35C90.0975 35 90.2326 35.0254 90.3587 35.0747C90.4847 35.124 90.5992 35.1963 90.6957 35.2874C90.7922 35.3785 90.8687 35.4867 90.9209 35.6058C90.9731 35.7248 91 35.8524 91 35.9813V43.4145C91 43.5434 90.9731 43.671 90.9209 43.79C90.8687 43.9091 90.7922 44.0173 90.6957 44.1084C90.5992 44.1995 90.4847 44.2718 90.3587 44.3211C90.2326 44.3704 90.0975 44.3958 89.9611 44.3958ZM81.7907 42.6267H83.8685V76.4419H81.7907V42.6267ZM71.8007 47.1382H73.8785V76.4419H71.8007V47.1382ZM61.5013 51.4905H63.5791V76.9819H61.5013V51.4905ZM51.3278 61.1321H53.4056V77H51.3278V61.1321ZM41.1394 62.9658H43.2172V76.6897H41.1394V62.9658ZM31 62.5789H33.0778V76.8751H31V62.5789Z" fill="#4E2A8A"/>
</svg>
