<svg width="50" height="50" viewBox="0 0 50 50" fill="none" xmlns="http://www.w3.org/2000/svg">
<g opacity="0.86">
<rect width="50" height="50" rx="25" fill="#BED2EC"/>
<path d="M25 9C29.2435 9 33.3131 10.6857 36.3137 13.6863C39.3143 16.6869 41 20.7565 41 25C41 29.2435 39.3143 33.3131 36.3137 36.3137C33.3131 39.3143 29.2435 41 25 41C20.7565 41 16.6869 39.3143 13.6863 36.3137C10.6857 33.3131 9 29.2435 9 25C9 20.7565 10.6857 16.6869 13.6863 13.6863C16.6869 10.6857 20.7565 9 25 9ZM25 10.6842C21.2032 10.6842 17.5619 12.1925 14.8772 14.8772C12.1925 17.5619 10.6842 21.2032 10.6842 25C10.6842 28.7968 12.1925 32.4381 14.8772 35.1228C17.5619 37.8075 21.2032 39.3158 25 39.3158C26.88 39.3158 28.7415 38.9455 30.4784 38.2261C32.2153 37.5066 33.7934 36.4521 35.1228 35.1228C36.4521 33.7934 37.5066 32.2153 38.2261 30.4784C38.9455 28.7415 39.3158 26.88 39.3158 25C39.3158 21.2032 37.8075 17.5619 35.1228 14.8772C32.4381 12.1925 28.7968 10.6842 25 10.6842ZM24.1579 15.7368H25.8421V24.8653L33.7579 29.4295L32.9158 30.8947L24.1579 25.8421V15.7368Z" fill="#4E2A8A"/>
</g>
</svg>
