<svg width="49" height="49" viewBox="0 0 49 49" fill="none" xmlns="http://www.w3.org/2000/svg">
<rect width="49" height="49" rx="24.5" fill="#4E2A8A"/>
<path d="M34.2222 36.9H14.7778V19.85H34.2222M30.0556 9V12.1H18.9444V9H16.1667V12.1H14.7778C13.2361 12.1 12 13.4795 12 15.2V36.9C12 37.7222 12.2927 38.5107 12.8136 39.092C13.3345 39.6734 14.0411 40 14.7778 40H34.2222C34.9589 40 35.6655 39.6734 36.1864 39.092C36.7073 38.5107 37 37.7222 37 36.9V15.2C37 14.3778 36.7073 13.5893 36.1864 13.008C35.6655 12.4266 34.9589 12.1 34.2222 12.1H32.8333V9M31.4444 26.05H24.5V33.8H31.4444V26.05Z" fill="white"/>
</svg>
