<svg width="18" height="18" viewBox="0 0 18 18" fill="none" xmlns="http://www.w3.org/2000/svg">
<path d="M9.97414 2.36108L16.4496 13.5766C16.5484 13.7476 16.6004 13.9416 16.6004 14.1391C16.6004 14.3366 16.5484 14.5306 16.4496 14.7016C16.3509 14.8726 16.2089 15.0146 16.0379 15.1134C15.8669 15.2121 15.6729 15.2641 15.4754 15.2641H2.52439C2.32691 15.2641 2.13291 15.2121 1.9619 15.1134C1.79088 15.0146 1.64886 14.8726 1.55013 14.7016C1.45139 14.5306 1.39941 14.3366 1.39941 14.1391C1.39942 13.9416 1.4514 13.7476 1.55014 13.5766L8.02564 2.36108C8.45839 1.61108 9.54064 1.61108 9.97414 2.36108ZM8.99989 3.67358L3.17389 13.7641H14.8259L8.99989 3.67358ZM8.99989 11.2501C9.1988 11.2501 9.38956 11.3291 9.53022 11.4698C9.67087 11.6104 9.74989 11.8012 9.74989 12.0001C9.74989 12.199 9.67087 12.3898 9.53022 12.5304C9.38956 12.6711 9.1988 12.7501 8.99989 12.7501C8.80097 12.7501 8.61021 12.6711 8.46956 12.5304C8.3289 12.3898 8.24989 12.199 8.24989 12.0001C8.24989 11.8012 8.3289 11.6104 8.46956 11.4698C8.61021 11.3291 8.80097 11.2501 8.99989 11.2501ZM8.99989 6.00008C9.1988 6.00008 9.38956 6.0791 9.53022 6.21975C9.67087 6.36041 9.74989 6.55117 9.74989 6.75008V9.75008C9.74989 9.949 9.67087 10.1398 9.53022 10.2804C9.38956 10.4211 9.1988 10.5001 8.99989 10.5001C8.80097 10.5001 8.61021 10.4211 8.46956 10.2804C8.3289 10.1398 8.24989 9.949 8.24989 9.75008V6.75008C8.24989 6.55117 8.3289 6.36041 8.46956 6.21975C8.61021 6.0791 8.80097 6.00008 8.99989 6.00008Z" fill="white"/>
</svg>
