<svg width="49" height="49" viewBox="0 0 49 49" fill="none" xmlns="http://www.w3.org/2000/svg">
<rect width="49" height="49" rx="24.5" fill="#4E2A8A"/>
<path d="M15.1964 12.1846C17.4135 12 20.2616 12 23.9257 12H24.0743C27.7384 12 30.5865 12 32.8036 12.1846C35.046 12.3729 36.822 12.7631 38.2389 13.6443C39.6938 14.5501 40.3738 15.7279 40.6948 17.2135C41 18.6313 41 20.4355 41 22.6854V22.9106C41 25.1038 41 26.6213 40.6837 27.7523C40.5353 28.3336 40.2425 28.8867 39.8219 29.3806C39.4044 29.8631 38.873 30.2692 38.2405 30.6631C36.822 31.5455 35.046 31.9344 32.8036 32.1215C30.5865 32.3074 27.7384 32.3073 24.0743 32.3073H24C22.33 32.3073 21.0539 32.7467 19.7192 33.4224C19.1783 33.6944 18.6517 33.9935 18.0808 34.3196L17.6001 34.5904C16.8489 35.015 16.0282 35.4642 15.1015 35.8777C14.9211 35.9582 14.7167 36.0004 14.5088 36C14.3008 35.9996 14.0967 35.9567 13.9168 35.8755C13.7369 35.7944 13.5876 35.6778 13.4838 35.5376C13.3801 35.3974 13.3255 35.2384 13.3256 35.0765V31.8951C11.9355 31.6612 10.759 31.2846 9.76112 30.6643C9.12856 30.2692 8.59563 29.8643 8.17972 29.3806C7.75848 28.8868 7.46518 28.3337 7.31628 27.7523C7 26.6213 7 25.1038 7 22.9106V22.6854C7 20.4355 7 18.6313 7.30521 17.2147C7.62623 15.7279 8.30623 14.5501 9.76112 13.6443C11.178 12.7618 12.954 12.3717 15.1964 12.1846ZM18.8605 22.1549C18.8605 21.9101 18.7355 21.6753 18.5131 21.5022C18.2907 21.3291 17.989 21.2318 17.6744 21.2318C17.3599 21.2318 17.0582 21.3291 16.8358 21.5022C16.6133 21.6753 16.4884 21.9101 16.4884 22.1549V22.7703C16.4884 23.0151 16.6133 23.2499 16.8358 23.423C17.0582 23.5961 17.3599 23.6933 17.6744 23.6933C17.989 23.6933 18.2907 23.5961 18.5131 23.423C18.7355 23.2499 18.8605 23.0151 18.8605 22.7703V22.1549ZM25.186 22.1549C25.186 21.9101 25.0611 21.6753 24.8387 21.5022C24.6162 21.3291 24.3146 21.2318 24 21.2318C23.6854 21.2318 23.3838 21.3291 23.1613 21.5022C22.9389 21.6753 22.814 21.9101 22.814 22.1549V22.7703C22.814 23.0151 22.9389 23.2499 23.1613 23.423C23.3838 23.5961 23.6854 23.6933 24 23.6933C24.3146 23.6933 24.6162 23.5961 24.8387 23.423C25.0611 23.2499 25.186 23.0151 25.186 22.7703V22.1549ZM31.5116 22.1549C31.5116 21.9101 31.3867 21.6753 31.1642 21.5022C30.9418 21.3291 30.6401 21.2318 30.3256 21.2318C30.011 21.2318 29.7093 21.3291 29.4869 21.5022C29.2645 21.6753 29.1395 21.9101 29.1395 22.1549V22.7703C29.1395 23.0151 29.2645 23.2499 29.4869 23.423C29.7093 23.5961 30.011 23.6933 30.3256 23.6933C30.6401 23.6933 30.9418 23.5961 31.1642 23.423C31.3867 23.2499 31.5116 23.0151 31.5116 22.7703V22.1549Z" fill="white"/>
</svg>
