<svg width="70" height="70" viewBox="0 0 70 70" fill="none" xmlns="http://www.w3.org/2000/svg">
<rect width="70" height="70" rx="9" fill="#B99BF2" fill-opacity="0.4"/>
<path d="M24.1387 18.506V9.44003C24.1387 9.44003 32.0813 9.73579 35.0007 6.43701C37.9201 9.73579 45.8628 9.44003 45.8628 9.44003V18.4719L35.1426 17.4708L24.1387 18.506Z" fill="white"/>
<path d="M32.1836 13.5021H34.2657V15.2875H35.7337V13.5021H37.8158V12.2454H35.7337V10.46H34.2657V12.2454H32.1836V13.5021Z" fill="#D22F27"/>
<path d="M12.2346 63.5623C12.2346 63.5623 9.76187 45.9792 23.8915 45.9792C27.65 48.4916 30.987 50.4623 34.6065 50.4552L34.9303 50.5732C38.5499 50.5803 41.8868 48.3736 45.6453 45.8624C59.2616 45.8211 56.8419 63.4454 57.1139 63.5635" fill="white"/>
<path d="M21.3219 61.9538C23.3215 61.9538 24.9426 60.3327 24.9426 58.3331C24.9426 56.3334 23.3215 54.7124 21.3219 54.7124C19.3222 54.7124 17.7012 56.3334 17.7012 58.3331C17.7012 60.3327 19.3222 61.9538 21.3219 61.9538Z" fill="#9B9B9A"/>
<path d="M45.6261 45.8623C41.8822 48.3558 39.3962 49.9926 34.5977 50.6876C50.0254 51.1727 49.9073 58.8431 50.8072 63.5635H56.8458C56.8458 63.5635 59.933 45.8599 45.6261 45.8623Z" fill="#D0CFCE"/>
<path d="M46.2906 19.5598L34.5895 17.7012L21.9541 26.2442C21.8018 27.2639 21.7251 28.2935 21.7246 29.3244C21.7246 38.4578 27.6677 45.8621 34.9993 45.8621C42.3309 45.8621 48.2763 38.4578 48.2763 29.3256C48.2639 25.972 47.5892 22.6537 46.2906 19.5598Z" fill="white"/>
<path d="M29.5937 42.8277L25.8127 42.8506H25.4191C24.2316 42.821 23.0513 42.663 21.9004 42.3797C21.5068 42.2878 21.1132 42.1844 20.7315 42.0581C15.7816 40.3351 12.9547 34.8216 20.982 23.5419C21.6022 22.6689 22.2821 21.75 23.0455 20.8081H24.2382C24.237 20.8972 24.225 20.9859 24.2025 21.0723C24.1869 21.1525 24.1587 21.23 24.119 21.302C24.0951 21.3595 24.0593 21.4169 24.0235 21.4858L23.9997 21.5088C23.618 22.198 22.5135 22.7953 21.7144 23.8405C21.4042 24.2426 21.174 25.1569 20.8401 25.6049C21.4364 25.3866 22.4026 24.9777 23.1302 24.725C22.9029 25.5846 22.7474 26.4604 22.665 27.3439C22.6054 27.9527 22.5696 28.5615 22.5696 29.1703C22.5696 35.1777 25.4429 40.381 29.5937 42.8277ZM44.3721 42.7358H44.1097L40.3167 42.7587C44.4078 40.3006 47.2347 35.1317 47.2347 29.1703C47.2497 26.4338 46.6261 23.7292 45.4098 21.2561C45.3417 21.1151 45.3013 20.9632 45.2905 20.8081H46.7457C47.509 21.7615 48.2128 22.6804 48.833 23.5649C59.1981 38.0952 51.3855 42.7358 44.3721 42.7358Z" fill="white"/>
<path d="M33.8004 17.9703C30.2507 16.6482 23.9804 19.5325 23.9804 19.5325C22.4881 21.6642 21.6125 24.1401 21.4434 26.7058C28.1586 25.1528 36.7548 18.4918 36.7548 18.4918C36.3326 18.2506 34.262 18.1426 33.8004 17.9703Z" fill="white"/>
<path d="M49.4899 41.8392C49.2026 41.8389 48.9248 41.7438 48.7056 41.5708C48.4865 41.3977 48.3402 41.1579 48.2927 40.8939C48.2452 40.6299 48.2996 40.3588 48.4462 40.1286C48.5929 39.8985 48.8223 39.7241 49.0937 39.6366C49.9638 39.425 50.764 39.0154 51.4223 38.4446C52.0807 37.8738 52.5767 37.1596 52.8658 36.3661C53.5901 34.1091 53.0043 29.6756 46.1116 21.3623C46.0139 21.2446 45.9422 21.1102 45.9003 20.9666C45.8585 20.8231 45.8474 20.6732 45.8677 20.5257C45.888 20.3782 45.9393 20.2358 46.0187 20.1067C46.0981 19.9777 46.204 19.8644 46.3303 19.7735C46.4388 19.6826 46.5674 19.6147 46.7069 19.5748C46.8465 19.5349 46.9937 19.5238 47.1383 19.5424C47.2829 19.5609 47.4215 19.6086 47.5443 19.6822C47.6671 19.7558 47.7712 19.8534 47.8493 19.9683C53.8902 27.2522 56.4823 32.9937 55.1942 37.015C54.7971 38.154 54.1051 39.1844 53.1793 40.0151C52.2536 40.8458 51.1225 41.4513 49.8861 41.778C49.7586 41.8188 49.6247 41.8394 49.4899 41.8392ZM25.2412 19.692C25.2427 19.7839 25.2292 19.8756 25.2011 19.9638C25.1834 20.0473 25.1514 20.1276 25.1063 20.2016C25.0783 20.2605 24.6737 19.9105 24.6336 19.9819C24.6202 19.9932 25.1282 19.8913 25.1136 19.9026C23.5735 21.7251 22.1481 23.6293 20.8445 25.6056C17.1235 30.9745 16.8269 34.1861 17.4078 36.0241C17.7075 36.836 18.2134 37.5682 18.8825 38.1584C19.5516 38.7486 20.364 39.1792 21.2504 39.4135C21.4127 39.4632 21.5624 39.5434 21.6902 39.6491C21.818 39.7548 21.9213 39.8838 21.9936 40.0281C22.0658 40.1724 22.1057 40.3289 22.1106 40.4881C22.1155 40.6473 22.0853 40.8057 22.022 40.9536C21.9131 41.179 21.736 41.3697 21.5123 41.5025C21.2887 41.6353 21.0282 41.7043 20.7631 41.701C20.592 41.7036 20.4221 41.6755 20.2624 41.6184C18.9907 41.2628 17.8305 40.6253 16.8811 39.7604C15.9317 38.8956 15.2213 37.8292 14.8109 36.6526C13.4851 32.4569 16.1768 26.4946 22.8192 18.9695C22.942 18.8312 23.0945 18.7184 23.267 18.6386C23.4396 18.5588 23.6282 18.5138 23.8206 18.5063H23.8327C23.9975 18.5025 24.162 18.5228 24.32 18.5663C24.3952 18.5873 24.4681 18.615 24.5376 18.649C24.6068 18.6735 24.6706 18.7096 24.7259 18.7555C24.8069 18.8139 24.8795 18.8816 24.9422 18.957C24.9987 19.0125 25.0447 19.0764 25.0783 19.1461C25.1319 19.2133 25.1688 19.2906 25.1865 19.3726C25.2251 19.4752 25.2437 19.5833 25.2412 19.692Z" fill="#4E2A8A"/>
<path d="M49.0771 29.1512C49.1763 34.2237 47.2806 39.1284 43.8069 42.7863C42.6907 44.0008 41.3409 44.9714 39.8405 45.6387C38.3401 46.3059 36.7208 46.6557 35.082 46.6665C33.4432 46.6773 31.8195 46.349 30.3107 45.7015C28.8018 45.0541 27.4397 44.1014 26.3079 42.9018C24.5536 41.0862 23.174 38.9353 22.2496 36.5745C21.3251 34.2137 20.8744 31.6902 20.9236 29.1512C20.9236 28.8511 20.935 28.5509 20.9464 28.2507C20.9667 27.6674 21.0162 27.0856 21.0947 26.5073C21.2094 25.488 21.4078 24.48 21.6879 23.494C21.9881 22.3575 22.3929 21.252 22.897 20.192C22.9671 20.0476 23.0662 19.9196 23.188 19.8162C23.3098 19.7128 23.4516 19.6363 23.6043 19.5917H23.6157C23.6373 19.5824 23.6608 19.5784 23.6842 19.5801C23.8016 19.5807 23.9178 19.6042 24.0264 19.6494C24.0747 19.6547 24.1214 19.6705 24.1633 19.6956C24.1747 19.7071 24.1975 19.7186 24.2089 19.7302C24.2687 19.7531 24.3232 19.7885 24.3686 19.8341C24.4368 19.8921 24.4981 19.958 24.5511 20.0304C24.6004 20.0841 24.6391 20.1468 24.6652 20.2151C24.7103 20.281 24.7414 20.3557 24.7565 20.4345C24.7892 20.535 24.8046 20.6404 24.8021 20.7462C24.8009 20.8357 24.7894 20.9249 24.7679 21.0117C24.753 21.0924 24.7261 21.1702 24.688 21.2426C24.6652 21.3004 24.631 21.3581 24.5968 21.4274L24.5739 21.4505C24.2089 22.1432 21.9354 22.6812 21.94 23.9858C21.9422 24.5654 22.4944 25.1588 21.8373 25.4105C22.4077 25.1912 23.0465 24.9372 23.7423 24.6832C23.525 25.5472 23.3762 26.4275 23.2974 27.3155C23.2404 27.9274 23.2062 28.5393 23.2062 29.1512C23.2062 35.1895 25.9554 40.4195 29.9252 42.8787C31.464 43.8557 33.2463 44.3681 35.0628 44.3559C36.8793 44.3436 38.6547 43.8071 40.1805 42.8094C44.0932 40.3387 46.7968 35.1433 46.7968 29.1512C46.8112 26.4008 46.2147 23.6822 45.0514 21.1965C44.8827 20.8089 44.7406 20.41 44.6259 20.0027C44.6324 19.7785 44.702 19.5609 44.8265 19.3754C44.9509 19.1899 45.1252 19.0442 45.3286 18.9555C45.899 18.6784 46.2857 18.1358 46.6017 18.8885C47.0523 19.9623 48.0162 22.3625 48.3242 23.5171C48.8291 25.3514 49.0824 27.2471 49.0771 29.1512Z" fill="#4E2A8A"/>
<path d="M41.7708 27.513C41.7708 27.9523 41.6367 28.3818 41.3853 28.747C41.1339 29.1123 40.7767 29.3969 40.3587 29.565C39.9407 29.7332 39.4807 29.7771 39.037 29.6914C38.5932 29.6057 38.1856 29.3942 37.8657 29.0836C37.5458 28.773 37.3279 28.3772 37.2397 27.9464C37.1514 27.5155 37.1967 27.0689 37.3698 26.6631C37.543 26.2572 37.8362 25.9103 38.2124 25.6663C38.5886 25.4222 39.0308 25.292 39.4833 25.292C40.09 25.292 40.6718 25.526 41.1008 25.9425C41.5298 26.359 41.7708 26.924 41.7708 27.513ZM32.6206 27.513C32.6206 27.9523 32.4864 28.3818 32.2351 28.747C31.9837 29.1123 31.6264 29.3969 31.2085 29.565C30.7905 29.7332 30.3305 29.7771 29.8868 29.6914C29.443 29.6057 29.0354 29.3942 28.7155 29.0836C28.3956 28.773 28.1777 28.3772 28.0894 27.9464C28.0012 27.5155 28.0465 27.0689 28.2196 26.6631C28.3928 26.2572 28.686 25.9103 29.0621 25.6663C29.4383 25.4222 29.8806 25.292 30.333 25.292C30.9397 25.292 31.5216 25.526 31.9506 25.9425C32.3796 26.359 32.6206 26.924 32.6206 27.513ZM34.907 38.6206C33.534 38.6078 32.1834 38.2813 30.9644 37.6678C30.83 37.6025 30.7102 37.5122 30.6118 37.402C30.5134 37.2918 30.4383 37.1638 30.3909 37.0254C30.3434 36.887 30.3245 36.7409 30.3351 36.5954C30.3458 36.4499 30.3859 36.3079 30.4531 36.1774C30.5204 36.047 30.6134 35.9307 30.7269 35.8351C30.8404 35.7396 30.9722 35.6667 31.1147 35.6206C31.2573 35.5745 31.4078 35.5561 31.5576 35.5665C31.7075 35.5768 31.8537 35.6158 31.9881 35.681C32.8852 36.1505 33.8884 36.3963 34.9076 36.3963C35.9267 36.3963 36.9299 36.1505 37.8271 35.681C37.9615 35.6158 38.1079 35.5769 38.2578 35.5665C38.4077 35.5562 38.5583 35.5746 38.7008 35.6207C38.8434 35.6669 38.9753 35.7399 39.0888 35.8355C39.2024 35.9311 39.2954 36.0475 39.3626 36.178C39.4298 36.3085 39.4699 36.4506 39.4806 36.5962C39.4912 36.7418 39.4722 36.8879 39.4247 37.0264C39.3772 37.1648 39.302 37.2928 39.2035 37.4031C39.1051 37.5133 38.9852 37.6036 38.8508 37.6689C37.6313 38.2822 36.2803 38.6083 34.907 38.6206ZM24.4757 20.6721C24.2013 20.6717 23.9362 20.5754 23.7287 20.4009C23.5213 20.2264 23.3854 19.9853 23.3459 19.7216C23.3064 19.4579 23.3658 19.1892 23.5134 18.9645C23.661 18.7398 23.8868 18.5741 24.1498 18.4977C31.2132 16.3612 38.7791 16.3628 45.8415 18.5022C45.9879 18.5433 46.1242 18.6124 46.2427 18.7053C46.3611 18.7983 46.4592 18.9133 46.5313 19.0437C46.6033 19.174 46.6478 19.3169 46.6622 19.4641C46.6766 19.6114 46.6605 19.7599 46.615 19.901C46.5694 20.0422 46.4953 20.173 46.3969 20.286C46.2986 20.3989 46.178 20.4916 46.0422 20.5587C45.9065 20.6258 45.7583 20.6658 45.6064 20.6765C45.4545 20.6872 45.3019 20.6684 45.1576 20.6211C38.5298 18.6169 31.4308 18.6184 24.804 20.6255C24.6975 20.6565 24.5869 20.6722 24.4757 20.6721Z" fill="#4E2A8A"/>
<path d="M34.025 6.07502C34.048 6.06397 34.0595 6.04188 34.071 6.03083C34.2085 5.86409 34.3979 5.74407 34.6117 5.68839C34.6548 5.66825 34.7018 5.65697 34.7497 5.65525C34.8131 5.63715 34.8792 5.62967 34.9452 5.63316C35.0113 5.62967 35.0774 5.63715 35.1408 5.65525C35.1887 5.65697 35.2357 5.66825 35.2788 5.68839C35.4317 5.72706 35.5734 5.79886 35.6929 5.89827C35.7586 5.9493 35.8167 6.00877 35.8655 6.07502C37.7634 8.12966 42.5946 8.56047 44.8951 8.57152C45.1137 8.57152 45.3092 8.56047 45.4702 8.56047C45.624 8.55247 45.7778 8.57481 45.9223 8.62611C46.0667 8.67741 46.1986 8.75657 46.3099 8.85873C46.4221 8.9614 46.5115 9.08477 46.5728 9.22145C46.6341 9.35812 46.6659 9.50527 46.6665 9.65407V19.0104C46.6665 19.3034 46.5453 19.5844 46.3296 19.7915C46.1139 19.9987 45.8213 20.1151 45.5163 20.1151C45.2112 20.1151 44.9186 19.9987 44.7029 19.7915C44.4872 19.5844 44.366 19.3034 44.366 19.0104V10.7587C44.1129 10.7587 43.8139 10.7477 43.4918 10.7256C41.1452 10.593 37.3263 10.0959 34.9452 8.25117C34.6239 8.01815 34.3307 7.75138 34.071 7.45582C33.8999 7.26552 33.8019 7.02457 33.7936 6.77324C33.7852 6.52191 33.8669 6.27544 34.025 6.07502Z" fill="#4E2A8A"/>
<path d="M23.334 19.0104V9.65407C23.3347 9.35552 23.4589 9.06947 23.6791 8.85873C23.9106 8.65399 24.2156 8.54316 24.5303 8.54942C24.6913 8.56047 24.8869 8.56047 25.0939 8.56047C27.406 8.56047 32.2486 8.14071 34.1351 6.07502C34.1581 6.06397 34.1696 6.04188 34.1811 6.03083C34.3185 5.86409 34.508 5.74407 34.7217 5.68839C34.7648 5.66825 34.8118 5.65697 34.8597 5.65525C34.9231 5.63715 34.9893 5.62967 35.0553 5.63316C35.1213 5.62967 35.1875 5.63715 35.2508 5.65525C35.2987 5.65697 35.3457 5.66825 35.3889 5.68839C35.5418 5.72706 35.6834 5.79886 35.803 5.89827C35.8686 5.9493 35.9267 6.00877 35.9755 6.07502C36.1336 6.27544 36.2153 6.52191 36.207 6.77324C36.1986 7.02457 36.1006 7.26552 35.9295 7.45582C35.6698 7.75138 35.3766 8.01815 35.0553 8.25117C32.6742 10.0959 28.8553 10.593 26.5087 10.7256C26.1867 10.7477 25.8876 10.7587 25.6345 10.7587V19.0104C25.6345 19.3034 25.5133 19.5844 25.2976 19.7915C25.0819 19.9987 24.7893 20.1151 24.4843 20.1151C24.1792 20.1151 23.8866 19.9987 23.6709 19.7915C23.4552 19.5844 23.334 19.3034 23.334 19.0104Z" fill="#4E2A8A"/>
<path d="M35.5966 10.0177V11.7007H37.3695V12.8853H35.5954V14.5683H34.3465V12.8853H32.5724V11.7019H34.3465V10.0189L35.5966 10.0177ZM35.5966 8.85059H34.3478C34.0215 8.85059 33.7085 8.97355 33.4778 9.19243C33.247 9.41131 33.1174 9.70817 33.1174 10.0177V10.5336H32.5736C32.2473 10.5336 31.9344 10.6565 31.7036 10.8754C31.4729 11.0943 31.3432 11.3912 31.3432 11.7007V12.8853C31.3432 13.1949 31.4729 13.4918 31.7036 13.7106C31.9344 13.9295 32.2473 14.0525 32.5736 14.0525H33.1174V14.5683C33.1174 14.8779 33.247 15.1748 33.4778 15.3936C33.7085 15.6125 34.0215 15.7355 34.3478 15.7355H35.5966C35.9229 15.7355 36.2358 15.6125 36.4666 15.3936C36.6973 15.1748 36.8269 14.8779 36.8269 14.5683V14.0525H37.3708C37.6971 14.0525 38.01 13.9295 38.2407 13.7106C38.4715 13.4918 38.6011 13.1949 38.6011 12.8853V11.7019C38.6011 11.3923 38.4715 11.0955 38.2407 10.8766C38.01 10.6577 37.6971 10.5348 37.3708 10.5348H36.8269V10.0189C36.8269 9.70934 36.6973 9.41248 36.4666 9.1936C36.2358 8.97472 35.9229 8.85175 35.5966 8.85175M21.3823 27.9717C21.1974 27.9718 21.0149 27.9325 20.8483 27.8565C20.6816 27.7805 20.5352 27.6699 20.4198 27.5329C20.3044 27.3959 20.2231 27.2359 20.1818 27.065C20.1406 26.894 20.1404 26.7164 20.1815 26.5454L20.1852 26.3248C20.1486 23.563 21.0058 20.8569 22.641 18.5716C22.7914 18.3633 23.009 18.2068 23.2611 18.1258C23.581 18.0219 31.1993 15.6013 37.5442 16.3634C37.7783 16.3914 37.999 16.4827 38.1799 16.6264C38.3608 16.77 38.4944 16.96 38.5647 17.1737C38.635 17.3873 38.639 17.6157 38.5763 17.8315C38.5136 18.0472 38.3868 18.2414 38.2111 18.3907C37.8297 18.714 28.8149 26.3108 21.669 27.9378C21.5747 27.9594 21.4781 27.9704 21.3811 27.9705M24.4422 20.2161C23.4423 21.72 22.8428 23.4319 22.6951 25.2044C26.8285 23.5255 30.6841 21.2883 34.1423 18.5623C30.8499 18.7355 27.5922 19.2909 24.4422 20.2161ZM21.0132 63.5632C20.0398 63.5632 19.0883 63.2894 18.279 62.7764C17.4697 62.2635 16.8389 61.5343 16.4664 60.6813C16.0939 59.8282 15.9965 58.8895 16.1864 57.9839C16.3763 57.0783 16.845 56.2465 17.5332 55.5936C18.2215 54.9407 19.0984 54.496 20.0531 54.3159C21.0078 54.1358 21.9973 54.2282 22.8966 54.5816C23.7958 54.9349 24.5644 55.5333 25.1052 56.301C25.646 57.0688 25.9346 57.9714 25.9346 58.8947C25.9333 60.1325 25.4144 61.3192 24.4917 62.1945C23.5691 63.0697 22.3181 63.562 21.0132 63.5632ZM21.0132 56.5605C20.5265 56.5605 20.0508 56.6974 19.6461 56.9539C19.2415 57.2103 18.9261 57.5749 18.7398 58.0014C18.5536 58.428 18.5048 58.8973 18.5998 59.3501C18.6947 59.8029 18.9291 60.2188 19.2732 60.5453C19.6174 60.8717 20.0558 61.0941 20.5332 61.1841C21.0105 61.2742 21.5052 61.228 21.9549 61.0513C22.4045 60.8746 22.7888 60.5754 23.0592 60.1916C23.3296 59.8077 23.4739 59.3564 23.4739 58.8947C23.4739 58.2756 23.2147 57.6819 22.7532 57.2441C22.2917 56.8064 21.6658 56.5605 21.0132 56.5605Z" fill="#4E2A8A"/>
<path d="M21.7313 56.6778C21.4734 56.6772 21.2227 56.5964 21.0175 56.4477C20.8123 56.299 20.6639 56.0906 20.5947 55.8541C20.2331 54.2339 20.215 52.5612 20.5416 50.9343C20.8682 49.3073 21.5328 47.7587 22.4965 46.3793C22.6662 46.1281 22.9338 45.9514 23.2404 45.888C23.547 45.8246 23.8676 45.8797 24.1315 46.0411C24.3955 46.2026 24.5812 46.4572 24.6479 46.7489C24.7145 47.0407 24.6566 47.3457 24.4869 47.5968C23.7015 48.7102 23.1549 49.9601 22.8784 51.275C22.602 52.5899 22.6012 53.9437 22.8761 55.2589C22.9576 55.5465 22.9158 55.8532 22.7599 56.1116C22.604 56.37 22.3468 56.5591 22.0447 56.6373C21.9426 56.6641 21.8372 56.6777 21.7313 56.6778ZM57.3996 63.5634C57.2289 63.5644 57.0601 63.5301 56.9047 63.4628C56.7493 63.3956 56.6112 63.297 56.4998 63.1739C56.3885 63.0508 56.3066 62.9062 56.2598 62.75C56.213 62.5938 56.2024 62.4298 56.2288 62.2694C56.2418 62.1793 57.6007 53.1253 51.1267 50.0308C50.8463 49.8967 50.6334 49.662 50.5348 49.3785C50.4362 49.095 50.46 48.7858 50.601 48.519C50.742 48.2522 50.9886 48.0496 51.2866 47.9558C51.5846 47.862 51.9095 47.8847 52.1899 48.0188C60.2073 51.8515 58.6355 62.1726 58.5658 62.6103C58.5226 62.8753 58.3814 63.117 58.1676 63.2917C57.9538 63.4665 57.6815 63.5628 57.3996 63.5634ZM35.0459 52.9779H34.9229L34.8755 52.9768C32.0691 52.9408 29.3477 52.0439 25.8245 49.9982C25.5601 49.8412 25.3715 49.5913 25.2998 49.3027C25.228 49.0142 25.2788 48.7103 25.4412 48.4572C25.6035 48.2041 25.8644 48.0222 26.1669 47.9511C26.4695 47.88 26.7893 47.9253 27.0569 48.0773C30.2324 49.9217 32.6131 50.7161 34.9985 50.7262C37.6589 50.6038 40.2326 49.787 42.4376 48.3654C42.7075 48.2196 43.0268 48.1807 43.3266 48.2569C43.6265 48.3332 43.8828 48.5185 44.0403 48.7729C44.1978 49.0273 44.2439 49.3305 44.1687 49.6169C44.0934 49.9034 43.9028 50.1503 43.638 50.3042C41.1034 51.9032 38.1644 52.8257 35.1275 52.9757C35.1014 52.9779 35.0754 52.9757 35.0459 52.9779ZM12.601 63.5634C12.319 63.5631 12.0463 63.4669 11.8323 63.2921C11.6182 63.1173 11.4769 62.8755 11.4337 62.6103C11.3592 62.1467 9.69873 51.2067 18.5534 47.6947C18.8429 47.5798 19.1686 47.5791 19.4587 47.6926C19.7488 47.8061 19.9796 48.0247 20.1004 48.3001C20.2211 48.5756 20.2219 48.8854 20.1026 49.1614C19.9833 49.4375 19.7536 49.6571 19.4641 49.772C12.3255 52.6043 13.7577 62.1726 13.773 62.2705C13.7993 62.4309 13.7885 62.5947 13.7417 62.7508C13.6948 62.9068 13.6128 63.0513 13.5015 63.1743C13.3901 63.2972 13.2521 63.3957 13.0968 63.4629C12.9415 63.5301 12.7716 63.5644 12.601 63.5634Z" fill="#4E2A8A"/>
<path d="M45.7427 64.368C45.7048 64.368 45.6662 64.3661 45.6267 64.3624C45.3147 64.3334 45.0276 64.1885 44.8283 63.9593C44.6289 63.7302 44.5337 63.4355 44.5634 63.14L44.6486 62.3011C44.3509 62.1593 44.0832 61.967 43.8589 61.7336C42.245 60.0683 42.657 56.2474 42.7932 55.2774C42.7731 53.6288 43.5593 50.7915 46.5207 50.0457C46.2682 48.9026 45.711 47.8397 44.902 46.9583C44.794 46.8523 44.7092 46.7272 44.6522 46.5901C44.5953 46.453 44.5674 46.3066 44.5703 46.1593C44.5731 46.012 44.6065 45.8666 44.6686 45.7316C44.7307 45.5965 44.8203 45.4743 44.9322 45.372C45.0442 45.2698 45.1763 45.1894 45.3211 45.1354C45.4658 45.0815 45.6204 45.0551 45.7759 45.0578C45.9314 45.0605 46.0849 45.0921 46.2275 45.1509C46.3701 45.2097 46.4991 45.2946 46.6071 45.4006C48.0007 46.9509 48.8623 48.8666 49.0771 50.8924C49.0907 51.044 49.0715 51.1966 49.0209 51.341C48.9702 51.4853 48.8891 51.6184 48.7825 51.7321C48.6758 51.8458 48.5458 51.9378 48.4004 52.0024C48.2551 52.0671 48.0973 52.103 47.9368 52.1081C45.2312 52.1933 45.1507 54.7929 45.1625 55.3133C45.1638 55.3744 45.1599 55.4355 45.1507 55.4961C44.97 56.7254 44.9775 57.973 45.1732 59.2003C45.2953 59.0604 45.4521 58.9513 45.6296 58.8828C45.8071 58.8143 45.9997 58.7885 46.1903 58.8077C46.5027 58.8361 46.7904 58.9808 46.9903 59.21C47.1901 59.4393 47.2857 59.7342 47.256 60.0301L47.1198 61.3849C47.1223 61.4387 47.1207 61.4927 47.1151 61.5464L46.9209 63.3586C46.8915 63.6353 46.7547 63.8917 46.537 64.0782C46.3193 64.2647 46.0363 64.368 45.7427 64.368Z" fill="#4E2A8A"/>
<path d="M50.7635 64.3678C50.4661 64.3676 50.1794 64.2623 49.9589 64.0723C49.7383 63.8823 49.5996 63.6212 49.5696 63.3394L49.3714 61.4908C49.3654 61.4345 49.3638 61.3779 49.3666 61.3215L49.2285 59.943C49.1984 59.6411 49.2953 59.3403 49.498 59.1064C49.7007 58.8726 49.9926 58.725 50.3095 58.6961C50.5032 58.6754 50.6992 58.7013 50.8797 58.7714C51.0602 58.8416 51.2193 58.9537 51.3424 59.0976C51.5414 57.8454 51.5495 56.5724 51.3665 55.318C51.3568 55.2543 51.3528 55.19 51.3545 55.1258C51.3665 54.6007 51.2848 51.949 48.5402 51.862C48.3795 51.8616 48.2204 51.8304 48.0725 51.7704C47.9246 51.7103 47.7909 51.6226 47.6792 51.5123C47.5676 51.4021 47.4803 51.2717 47.4226 51.1288C47.3649 50.9859 47.3379 50.8334 47.3432 50.6803C47.3485 50.5273 47.386 50.3768 47.4535 50.2378C47.521 50.0988 47.6171 49.9742 47.7362 49.8712C47.8552 49.7683 47.9947 49.6891 48.1464 49.6385C48.2982 49.5878 48.4591 49.5667 48.6195 49.5764C52.7478 49.7057 53.7807 53.1845 53.7567 55.0949C53.8948 56.0844 54.3116 59.9819 52.6745 61.6795C52.4473 61.9178 52.1762 62.1144 51.8745 62.2595L51.9598 63.114C51.99 63.4152 51.8937 63.7154 51.692 63.9491C51.4903 64.1828 51.1997 64.3309 50.8836 64.361C50.8437 64.3648 50.8036 64.3678 50.7635 64.3678ZM34.5508 63.3039C34.329 63.3041 34.1114 63.2456 33.9223 63.1352C33.7332 63.0247 33.5799 62.8666 33.4794 62.6782L26.6835 49.9425C26.6112 49.8085 26.5674 49.6622 26.5547 49.512C26.5419 49.3619 26.5605 49.2108 26.6092 49.0675C26.6579 48.9242 26.7359 48.7914 26.8386 48.6769C26.9413 48.5623 27.0668 48.4682 27.2078 48.4C27.3488 48.3317 27.5026 48.2907 27.6603 48.2792C27.818 48.2677 27.9765 48.286 28.1268 48.333C28.2771 48.3801 28.4161 48.4549 28.5359 48.5532C28.6558 48.6515 28.754 48.7715 28.8251 48.906L35.621 61.6418C35.714 61.816 35.7585 62.0101 35.7504 62.2054C35.7422 62.4007 35.6816 62.5908 35.5744 62.7575C35.4672 62.9242 35.317 63.0619 35.138 63.1576C34.959 63.2533 34.756 63.3037 34.5508 63.3039Z" fill="#4E2A8A"/>
<path d="M34.2474 63.5632C34.031 63.5629 33.8183 63.5103 33.6298 63.4104C33.4413 63.3105 33.2833 63.1667 33.171 62.9928C33.0588 62.8189 32.9961 62.6207 32.989 62.4175C32.9818 62.2142 33.0305 62.0126 33.1303 61.8321L40.2633 48.9146C40.4175 48.6357 40.6833 48.4258 41.0021 48.331C41.321 48.2363 41.6669 48.2644 41.9637 48.4093C42.2605 48.5542 42.4839 48.8039 42.5848 49.1035C42.6856 49.4032 42.6557 49.7282 42.5015 50.0071L35.3684 62.9246C35.2618 63.1174 35.1009 63.2789 34.9032 63.3916C34.7055 63.5042 34.4786 63.5636 34.2474 63.5632Z" fill="#4E2A8A"/>
</svg>
