<svg width="105" height="105" viewBox="0 0 105 105" fill="none" xmlns="http://www.w3.org/2000/svg">
<rect width="105" height="105" rx="52.5" fill="#B99BF2" fill-opacity="0.4"/>
<path d="M52.5 62.3999H52.527M52.5 35.9998V52.4999M25.5 50.0315C25.5 75.3987 48.8483 84.3087 52.1186 85.434C52.3729 85.522 52.6271 85.522 52.8814 85.434C56.1585 84.345 79.5 75.6594 79.5 50.0348V27.103C79.5007 26.8081 79.4004 26.5214 79.215 26.2888C79.0297 26.0561 78.77 25.8908 78.4774 25.8193L52.8274 19.5394C52.6124 19.4869 52.3876 19.4869 52.1726 19.5394L26.5226 25.8193C26.23 25.8908 25.9703 26.0561 25.785 26.2888C25.5996 26.5214 25.4993 26.8081 25.5 27.103V50.0315Z" stroke="#4E2A8A" stroke-width="3.8" stroke-miterlimit="10" stroke-linecap="round" stroke-linejoin="round"/>
</svg>
