<svg width="50" height="50" viewBox="0 0 50 50" fill="none" xmlns="http://www.w3.org/2000/svg">
<g opacity="0.86">
<rect width="50" height="50" rx="25" fill="#BED2EC"/>
<path d="M12 24.8353C12 19.7404 12 17.1922 13.4875 15.6101C14.9751 14.028 17.3676 14.0266 22.1539 14.0266H27.2309C32.0172 14.0266 34.4109 14.0266 35.8972 15.6101C37.3835 17.1936 37.3848 19.7404 37.3848 24.8353V27.5375C37.3848 32.6325 37.3848 35.1806 35.8972 36.7628C34.4097 38.3449 32.0172 38.3462 27.2309 38.3462H22.1539C17.3676 38.3462 14.9738 38.3462 13.4875 36.7628C12.0013 35.1793 12 32.6325 12 27.5375V24.8353Z" stroke="#2F80ED" stroke-width="2.5"/>
<path d="M18.3461 14.0266V12M31.0385 14.0266V12M12.6345 20.7821H36.7501" stroke="#2F80ED" stroke-width="2.5" stroke-linecap="round"/>
<path d="M18.3463 31.3225C18.373 31.3226 18.4131 31.3339 18.4537 31.3772C18.4967 31.423 18.5319 31.499 18.5319 31.5911C18.5318 31.6829 18.4966 31.7582 18.4537 31.804C18.413 31.8473 18.373 31.8586 18.3463 31.8586C18.3196 31.8586 18.2788 31.8474 18.2379 31.804C18.1951 31.7582 18.1599 31.6828 18.1598 31.5911C18.1598 31.4991 18.195 31.423 18.2379 31.3772C18.2788 31.3337 18.3196 31.3225 18.3463 31.3225ZM24.692 31.3225C24.7187 31.3225 24.7596 31.3337 24.8004 31.3772C24.8433 31.423 24.8785 31.4991 24.8785 31.5911C24.8784 31.6828 24.8432 31.7582 24.8004 31.804C24.7596 31.8474 24.7187 31.8586 24.692 31.8586C24.6653 31.8586 24.6253 31.8473 24.5846 31.804C24.5417 31.7583 24.5066 31.683 24.5065 31.5911C24.5065 31.499 24.5416 31.423 24.5846 31.3772C24.6253 31.3339 24.6653 31.3226 24.692 31.3225ZM31.0387 31.3225C31.0654 31.3226 31.1054 31.3339 31.1461 31.3772C31.1891 31.423 31.2242 31.499 31.2242 31.5911C31.2241 31.6829 31.189 31.7583 31.1461 31.804C31.1054 31.8473 31.0654 31.8586 31.0387 31.8586C31.012 31.8586 30.9711 31.8474 30.9303 31.804C30.8875 31.7582 30.8523 31.6828 30.8522 31.5911C30.8522 31.4991 30.8874 31.423 30.9303 31.3772C30.9711 31.3337 31.012 31.3225 31.0387 31.3225ZM18.3463 25.9182C18.373 25.9183 18.413 25.9296 18.4537 25.9729C18.4967 26.0187 18.5319 26.0947 18.5319 26.1868C18.5317 26.2786 18.4966 26.354 18.4537 26.3997C18.413 26.443 18.373 26.4543 18.3463 26.4543C18.3196 26.4543 18.2788 26.4431 18.2379 26.3997C18.1951 26.3539 18.1599 26.2785 18.1598 26.1868C18.1598 26.0948 18.195 26.0187 18.2379 25.9729C18.2788 25.9294 18.3196 25.9182 18.3463 25.9182ZM24.692 25.9182C24.7187 25.9182 24.7596 25.9294 24.8004 25.9729C24.8433 26.0187 24.8785 26.0948 24.8785 26.1868C24.8784 26.2785 24.8432 26.3539 24.8004 26.3997C24.7596 26.4431 24.7187 26.4543 24.692 26.4543C24.6653 26.4543 24.6253 26.443 24.5846 26.3997C24.5417 26.354 24.5066 26.2787 24.5065 26.1868C24.5065 26.0947 24.5416 26.0187 24.5846 25.9729C24.6253 25.9296 24.6653 25.9183 24.692 25.9182ZM31.0387 25.9182C31.0654 25.9183 31.1054 25.9296 31.1461 25.9729C31.1891 26.0187 31.2242 26.0947 31.2242 26.1868C31.2241 26.2786 31.189 26.354 31.1461 26.3997C31.1054 26.443 31.0654 26.4543 31.0387 26.4543C31.012 26.4543 30.9711 26.4431 30.9303 26.3997C30.8875 26.3539 30.8523 26.2785 30.8522 26.1868C30.8522 26.0948 30.8874 26.0187 30.9303 25.9729C30.9711 25.9294 31.012 25.9182 31.0387 25.9182Z" fill="#2F80ED" stroke="#4C92F0" stroke-width="2.16667"/>
</g>
</svg>
