<svg width="52" height="52" viewBox="0 0 52 52" fill="none" xmlns="http://www.w3.org/2000/svg">
<g opacity="0.86">
<rect width="52" height="52" rx="26" fill="#8A62D8" fill-opacity="0.3"/>
<path d="M36.5294 20.0041V12.5697H31.6737V7H20.3369V12.5697H15.4812V20.0041H9V46H43V20.0041H36.5294ZM23.5775 12.5697H25.1925V10.7172H26.8181V12.5697H28.4331V14.4344H26.8181V16.2869H25.1925V14.4344H23.5775V12.5697ZM10.6256 21.8566H15.4812V40.4303H10.6256V21.8566ZM18.7219 44.1475H10.6256V42.295H18.7219V44.1475ZM31.6737 44.1475H20.3369V42.295H31.6737V44.1475ZM21.9625 40.4303V31.1434H25.1925V40.4303H21.9625ZM26.8181 40.4303V31.1434H30.0481V40.4303H26.8181ZM20.3369 29.2909V40.4303H17.0962V14.4344H20.3369V20.0041H31.6737V14.4344H34.9144V40.4303H31.6737V29.2909H20.3369ZM41.385 44.1475H33.2887V42.295H41.385V44.1475ZM41.385 40.4303H36.5294V21.8566H41.385V40.4303Z" fill="#4E2A8A"/>
<path d="M38.3466 35.1296H40V37H38.3466V35.1296ZM38.3466 31.3765H40V33.2592H38.3466V31.3765ZM38.3466 27.6358H40V29.5062H38.3466V27.6358ZM38.3466 23.8827H40V25.7531H38.3466V23.8827ZM30.1119 25.7531H33.408V27.6358H30.1119V25.7531ZM30.1119 22H33.408V23.8827H30.1119V22ZM23.5307 25.7531H28.4693V27.6358H23.5307V25.7531ZM23.5307 22H28.4693V23.8827H23.5307V22ZM18.592 25.7531H21.8881V27.6358H18.592V25.7531ZM18.592 22H21.8881V23.8827H18.592V22ZM12 35.1296H13.6534V37H12V35.1296ZM12 31.3765H13.6534V33.2592H12V31.3765ZM12 27.6358H13.6534V29.5062H12V27.6358ZM12 23.8827H13.6534V25.7531H12V23.8827Z" fill="#4E2A8A"/>
</g>
</svg>
